<svg width="70" height="55" viewBox="0 0 70 55" fill="none" xmlns="http://www.w3.org/2000/svg">
<path d="M0 27.3611L16.5278 32.3695V43.8889L0 38.0609V27.3611Z" fill="#F8FFC7"/>
<path d="M16.5278 23.4722L70 9.86108V21.5278L16.5278 35.1389V23.4722Z" fill="#F8FFC7"/>
<path d="M16.5278 35.1389L70 21.5278V29.3056L16.5278 42.9167V35.1389Z" fill="#F8FFC7"/>
<path d="M0.1 48.1302V36.7386L16.4278 42.513V53.9554L0.1 48.1302Z" fill="#EFBB52" stroke="#EFBB52" stroke-width="0.2"/>
<path d="M0 18.4167L16.5278 23.4841V35.139L0 29.7917V18.4167Z" fill="#F8FFC7"/>
<path d="M16.6278 53.9697V42.509L69.9 29.4331V40.8938L16.6278 53.9697Z" fill="#EFBB52" stroke="#EFBB52" stroke-width="0.2"/>
<path d="M16.5302 23.3684L0.372983 18.4262L53.4701 5.10362L69.6219 9.85416L16.5302 23.3684Z" fill="#E6FF59" stroke="#EFBB52" stroke-width="0.2"/>
<path d="M27.793 7.59701C28.3176 8.40671 28.6777 9.31183 28.8525 10.2607C29.0273 11.2095 29.0136 12.1835 28.812 13.127C28.6104 14.0705 28.225 14.9651 27.6777 15.7597C27.1304 16.5542 26.4319 17.2332 25.6222 17.7578C24.8125 18.2825 23.9074 18.6425 22.9585 18.8173C22.0097 18.9922 21.0357 18.9784 20.0922 18.7768C19.1487 18.5752 18.2541 18.1898 17.4595 17.6425C16.665 17.0952 15.986 16.3967 15.4614 15.587" stroke="#EFBB52" stroke-width="2"/>
<path d="M27.2792 7.92996C27.7601 8.67219 28.0902 9.50188 28.2504 10.3716C28.4107 11.2414 28.3981 12.1342 28.2133 12.9991C28.0285 13.864 27.6752 14.6841 27.1735 15.4124C26.6718 16.1407 26.0316 16.7631 25.2893 17.2441C24.5471 17.725 23.7174 18.055 22.8476 18.2152C21.9779 18.3755 21.085 18.3629 20.2201 18.1781C19.3553 17.9933 18.5352 17.64 17.8069 17.1383C17.0785 16.6366 16.4561 15.9964 15.9752 15.2542" stroke="#FDFFD1" stroke-width="2"/>
<path d="M26.3872 9.6995C26.5108 10.0103 26.6039 10.3333 26.6648 10.6638C26.7867 11.3254 26.7771 12.0045 26.6366 12.6623C26.4961 13.3202 26.2273 13.9439 25.8457 14.4979C25.4641 15.0518 24.9772 15.5252 24.4126 15.891C23.8481 16.2568 23.217 16.5078 22.5554 16.6297C21.8939 16.7516 21.2148 16.742 20.557 16.6015C19.8991 16.4609 19.2754 16.1922 18.7214 15.8106C18.4446 15.6199 18.1879 15.403 17.9547 15.1631L26.3872 9.6995Z" fill="#FFF14F" stroke="#FFF14F" stroke-width="2"/>
<path d="M22.141 11.2591C22.2293 11.3954 22.2599 11.5612 22.2259 11.7199C22.192 11.8787 22.0964 12.0176 21.9601 12.1059C21.8238 12.1941 21.6581 12.2247 21.4993 12.1908C21.3405 12.1568 21.2017 12.0612 21.1134 11.925L21.6272 11.592L22.141 11.2591Z" fill="#FDFFD1"/>
<line x1="22.7049" y1="13.2611" x2="24.2064" y2="15.5784" stroke="#FDFFD1" stroke-width="0.3" stroke-linecap="round"/>
<line x1="23.8461" y1="12.3786" x2="26.4377" y2="13.3316" stroke="#FDFFD1" stroke-width="0.3" stroke-linecap="round"/>
<line x1="21.4808" y1="14.1257" x2="21.2916" y2="16.8805" stroke="#FDFFD1" stroke-width="0.3" stroke-linecap="round"/>
<path d="M52.793 0.597006C53.3176 1.40671 53.6777 2.31183 53.8525 3.26067C54.0273 4.20951 54.0136 5.18349 53.812 6.12701C53.6104 7.07053 53.225 7.96511 52.6777 8.75967C52.1304 9.55423 51.4319 10.2332 50.6222 10.7578C49.8125 11.2825 48.9074 11.6425 47.9585 11.8173C47.0097 11.9922 46.0357 11.9784 45.0922 11.7768C44.1487 11.5752 43.2541 11.1898 42.4595 10.6425C41.665 10.0952 40.986 9.39674 40.4614 8.58704" stroke="#EFBB52" stroke-width="2"/>
<path d="M52.2792 0.929957C52.7601 1.67219 53.0902 2.50188 53.2504 3.37165C53.4107 4.24142 53.3981 5.13424 53.2133 5.99913C53.0285 6.86402 52.6752 7.68405 52.1735 8.4124C51.6718 9.14075 51.0316 9.76314 50.2893 10.2441C49.5471 10.725 48.7174 11.055 47.8476 11.2152C46.9779 11.3755 46.085 11.3629 45.2201 11.1781C44.3553 10.9933 43.5352 10.64 42.8069 10.1383C42.0785 9.63662 41.4561 8.99638 40.9752 8.25415" stroke="#FDFFD1" stroke-width="2"/>
<path d="M51.3872 2.6995C51.5108 3.01034 51.6039 3.33328 51.6648 3.66384C51.7867 4.32539 51.7771 5.00447 51.6366 5.66232C51.4961 6.32016 51.2273 6.94388 50.8457 7.49786C50.4641 8.05185 49.9772 8.52525 49.4126 8.89103C48.8481 9.25682 48.217 9.50783 47.5554 9.62973C46.8939 9.75163 46.2148 9.74203 45.557 9.60149C44.8991 9.46094 44.2754 9.1922 43.7214 8.81061C43.4446 8.61994 43.1879 8.40296 42.9547 8.16314L51.3872 2.6995Z" fill="#FFF14F" stroke="#FFF14F" stroke-width="2"/>
<path d="M47.141 4.25912C47.2293 4.39539 47.2599 4.56116 47.2259 4.71995C47.192 4.87874 47.0964 5.01756 46.9601 5.10585C46.8238 5.19415 46.6581 5.22469 46.4993 5.19077C46.3405 5.15684 46.2017 5.06122 46.1134 4.92495L46.6272 4.59203L47.141 4.25912Z" fill="#FDFFD1"/>
<line x1="47.7049" y1="6.26112" x2="49.2064" y2="8.57844" stroke="#FDFFD1" stroke-width="0.3" stroke-linecap="round"/>
<line x1="48.8461" y1="5.37864" x2="51.4377" y2="6.33162" stroke="#FDFFD1" stroke-width="0.3" stroke-linecap="round"/>
<line x1="46.4808" y1="7.12575" x2="46.2916" y2="9.88048" stroke="#FDFFD1" stroke-width="0.3" stroke-linecap="round"/>
</svg>
