<svg width="70" height="50" viewBox="0 0 70 50" fill="none" xmlns="http://www.w3.org/2000/svg">
<path d="M0.1 32.9901V22.4959L16.4278 27.4437V38.7476L0.1 32.9901Z" fill="#F4DDAE" stroke="#F4DDAE" stroke-width="0.2"/>
<path d="M16.5278 18.4722L70.0001 4.86108V16.5278L16.5278 30.1389V18.4722Z" fill="#775148"/>
<path d="M16.5278 30.1389L70.0001 16.5278V24.3056L16.5278 37.9167V30.1389Z" fill="#F4DDAE"/>
<path d="M0.1 43.1302V31.7386L16.4278 37.513V48.9554L0.1 43.1302Z" fill="#EFBB52" stroke="#EFBB52" stroke-width="0.2"/>
<path d="M0.1 24.7189V13.552L16.4278 18.558V30.0015L0.1 24.7189Z" fill="#775148" stroke="#775148" stroke-width="0.2"/>
<path d="M16.6278 48.9697V37.509L69.9001 24.4331V35.8938L16.6278 48.9697Z" fill="#EFBB52" stroke="#EFBB52" stroke-width="0.2"/>
<path d="M0 13.4167L53.4722 0L70 4.86111L16.5278 18.4722L0 13.4167Z" fill="#4E2B22"/>
<path d="M17.0139 10.4028L19.2258 9.518C19.3703 9.46023 19.5244 9.43054 19.68 9.43054H20.2695C20.6193 9.43054 20.9028 9.71408 20.9028 10.0638V10.0638C20.9028 10.2756 20.797 10.4733 20.6208 10.5908L19.4445 11.375L17.6118 12.4746C17.2409 12.6971 17.0139 13.098 17.0139 13.5306V13.5306C17.0139 13.997 17.3054 14.3491 17.7689 14.2965C18.5262 14.2104 19.5974 13.9721 19.9306 13.8055C20.9028 13.3194 20.9028 13.3194 21.3889 12.8333C22.3611 11.8611 23.0143 11.2079 23.3334 10.8889C23.542 10.6802 23.8403 10.4715 24.1896 10.3398C25.1953 9.96047 26.2846 10.9903 25.6837 11.8814C25.2392 12.5406 24.4885 13.1365 24.3056 13.3194L23.0152 14.6098C22.9077 14.7173 22.8472 14.8632 22.8472 15.0154V15.0154C22.8472 15.3885 23.1979 15.6623 23.5599 15.5718L24.5893 15.3145C24.7235 15.2809 24.852 15.2277 24.9706 15.1565L27.2222 13.8055" stroke="#F4DDAE" stroke-linecap="round"/>
<path d="M45.6945 3.20843L47.9064 2.32367C48.0508 2.26589 48.2049 2.23621 48.3605 2.23621H48.9501C49.2998 2.23621 49.5833 2.51974 49.5833 2.8695V2.8695C49.5833 3.08124 49.4775 3.27898 49.3013 3.39643L48.125 4.18065L46.2923 5.28025C45.9214 5.50281 45.6945 5.90366 45.6945 6.33623V6.33623C45.6945 6.80267 45.9859 7.15481 46.4494 7.10213C47.2067 7.01606 48.2779 6.77779 48.6111 6.61121C49.5833 6.12509 49.5833 6.12509 50.0695 5.63898C51.0417 4.66676 51.6949 4.01355 52.0139 3.69454C52.2226 3.48587 52.5208 3.27721 52.8702 3.14544C53.8758 2.76613 54.9652 3.79593 54.3643 4.68709C53.9198 5.3463 53.169 5.94218 52.9861 6.12509L51.6958 7.41543C51.5882 7.523 51.5278 7.66889 51.5278 7.82101V7.82101C51.5278 8.19417 51.8785 8.46798 52.2405 8.37747L53.2698 8.12014C53.404 8.08659 53.5325 8.03337 53.6511 7.9622L55.9028 6.61121" stroke="#F4DDAE" stroke-linecap="round"/>
</svg>
