<svg width="70" height="53" viewBox="0 0 70 53" fill="none" xmlns="http://www.w3.org/2000/svg">
<path d="M0.1 35.9346V25.4403L16.4278 30.3881V41.692L0.1 35.9346Z" fill="#FFF8E9" stroke="#FFF8E9" stroke-width="0.2"/>
<path d="M16.5278 21.4167L70.0001 7.80554V19.4722L16.5278 33.0833V21.4167Z" fill="#FF6F6F"/>
<path d="M17.0278 40.218V33.4721L69.5001 20.1155V26.8614L17.0278 40.218Z" fill="#FFF8E9" stroke="#FFF8E9"/>
<path d="M0.1 46.0746V34.6831L16.4278 40.4575V51.8998L0.1 46.0746Z" fill="#FF6F6F" stroke="#FF6F6F" stroke-width="0.2"/>
<path d="M0.1 27.6634V16.4965L16.4278 21.5025V32.946L0.1 27.6634Z" fill="#FF6F6F" stroke="#FF6F6F" stroke-width="0.2"/>
<path d="M16.6278 51.9142V40.4534L69.9001 27.3775V38.8382L16.6278 51.9142Z" fill="#FF6F6F" stroke="#FF6F6F" stroke-width="0.2"/>
<path d="M0 16.3611L53.4722 2.94446L70 7.80557L16.5278 21.4167L0 16.3611Z" fill="#EF4545"/>
<path d="M33.5699 13.4029L34.1829 13.5562C34.4028 13.6111 34.6285 13.6389 34.8552 13.6389H35.5491C35.8301 13.6389 36.1101 13.6044 36.3828 13.5363L37.2199 13.327C37.6622 13.2164 38.0341 12.9181 38.2379 12.5103C38.3464 12.2935 38.4028 12.0544 38.4028 11.8119V11.4231C38.4028 10.6572 38.1234 9.92067 37.6465 9.32131C37.2747 8.85407 36.9445 8.40502 36.9445 8.29169C36.9445 8.04864 35 6.34725 34.5139 5.86114C34.125 5.47225 33.3797 5.05095 33.0556 4.88892L33.9071 6.59188C33.9874 6.75252 34.0526 6.92026 34.102 7.09295C34.3604 7.99745 34.1719 8.97727 33.5556 9.68796C33.3677 9.9046 33.1903 10.1015 33.0556 10.2361L32.7714 10.5203C32.3446 10.9472 32.173 11.5667 32.3194 12.1524C32.4733 12.7682 32.9541 13.249 33.5699 13.4029Z" fill="#FFF8E9" stroke="#FF6F6F" stroke-width="0.2" stroke-linecap="round"/>
<path d="M47.181 9.51399L47.794 9.66724C48.0138 9.72221 48.2396 9.75 48.4662 9.75H49.1602C49.4412 9.75 49.7212 9.71553 49.9939 9.64736L50.8309 9.4381C51.2732 9.32753 51.6451 9.0292 51.849 8.62142C51.9575 8.40457 52.0139 8.16544 52.0139 7.92299V7.5342C52.0139 6.76824 51.7345 6.03176 51.2576 5.43239C50.8858 4.96516 50.5556 4.5161 50.5556 4.40278C50.5556 4.15972 48.6111 2.45833 48.125 1.97222C47.7361 1.58333 46.9908 1.16204 46.6667 1L47.5182 2.70297C47.5985 2.86361 47.6637 3.03135 47.7131 3.20404C47.9715 4.10854 47.783 5.08836 47.1667 5.79904C46.9788 6.01569 46.8014 6.21255 46.6667 6.34722L46.3825 6.63139C45.9556 7.05827 45.784 7.6778 45.9305 8.26348C46.0844 8.87925 46.5652 9.36005 47.181 9.51399Z" fill="#FFF8E9" stroke="#FF6F6F" stroke-width="0.2" stroke-linecap="round"/>
<path d="M18.9865 17.2918L19.5995 17.4451C19.8194 17.5 20.0452 17.5278 20.2718 17.5278H20.9657C21.2468 17.5278 21.5268 17.4934 21.7994 17.4252L22.6365 17.2159C23.0788 17.1054 23.4507 16.807 23.6546 16.3993C23.763 16.1824 23.8194 15.9433 23.8194 15.7008V15.312C23.8194 14.5461 23.54 13.8096 23.0631 13.2102C22.6913 12.743 22.3611 12.2939 22.3611 12.1806C22.3611 11.9376 20.4167 10.2362 19.9306 9.75005C19.5417 9.36117 18.7963 8.93987 18.4722 8.77783L19.3237 10.4808C19.404 10.6414 19.4693 10.8092 19.5186 10.9819C19.777 11.8864 19.5885 12.8662 18.9722 13.5769C18.7843 13.7935 18.6069 13.9904 18.4722 14.1251L18.1881 14.4092C17.7612 14.8361 17.5896 15.4556 17.736 16.0413C17.89 16.6571 18.3707 17.1379 18.9865 17.2918Z" fill="#FFF8E9" stroke="#FF6F6F" stroke-width="0.2" stroke-linecap="round"/>
</svg>
