<svg width="8" height="8" viewBox="0 0 8 8" fill="none" xmlns="http://www.w3.org/2000/svg">
<circle cx="4" cy="4" r="3.6" fill="#FFF4D6" stroke="#FF6F6F" stroke-width="0.8"/>
<path d="M4 3.40002L3.61803 3.59101C3.2767 3.76167 3.13835 4.17673 3.30902 4.51806V4.51806C3.42606 4.75215 3.66533 4.90002 3.92705 4.90002H4.09873C4.35566 4.90002 4.60207 4.79796 4.78374 4.61628L5.09739 4.30263C5.35518 4.04485 5.5 3.69521 5.5 3.33065V3.33065C5.5 2.76858 5.15781 2.26314 4.63594 2.05438L4.61946 2.04779C4.53999 2.016 4.45777 1.99156 4.37384 1.97477L4.22291 1.94459C4.07466 1.91495 3.92386 1.90002 3.77268 1.90002H3.74338C2.96989 1.90002 2.25096 2.29849 1.84101 2.9544V2.9544C1.61816 3.31095 1.48134 3.72638 1.55366 4.14057C1.66705 4.78987 1.94183 5.24183 2.2 5.5C2.27453 5.57453 2.34831 5.64165 2.42103 5.70302C3.05787 6.24051 3.99468 6.37633 4.80314 6.17421V6.17421C5.25753 6.06062 5.66812 5.81507 5.98319 5.4685L6.24511 5.18039C6.41435 4.99423 6.5593 4.78736 6.67647 4.56472V4.56472C7.18405 3.60031 7.12371 2.43556 6.51918 1.52877L6.5 1.5" stroke="#FF6F6F" stroke-width="0.8" stroke-linecap="round"/>
</svg>
