<svg width="72" height="88" viewBox="0 0 72 88" fill="none" xmlns="http://www.w3.org/2000/svg">
<path d="M63.4759 50.8065C63.4759 54.6662 59.865 57.9597 55.1936 57.9597C50.5223 57.9597 46.9114 54.6662 46.9114 50.8065C46.9114 46.9468 50.5223 43.6533 55.1936 43.6533C59.865 43.6533 63.4759 46.9468 63.4759 50.8065Z" fill="#FFF4D6" stroke="#FF6F6F" stroke-width="1.5"/>
<path d="M55.1937 49.621L54.306 50.0094C53.574 50.3297 53.2814 51.2139 53.6777 51.9075V51.9075C53.917 52.3263 54.3624 52.5847 54.8447 52.5847H55.4353C56.0074 52.5847 56.5601 52.3771 56.9906 52.0004L57.7108 51.3702C58.2637 50.8864 58.5808 50.1875 58.5808 49.4528V49.4528C58.5808 48.3701 57.8966 47.4057 56.8747 47.048L56.5565 46.9367C56.401 46.8822 56.2412 46.8406 56.0788 46.8122L55.6754 46.7416C55.3549 46.6855 55.0302 46.6573 54.7048 46.6573H54.2007C52.6983 46.6573 51.2884 47.3829 50.4151 48.6054V48.6054C49.8516 49.3944 49.4912 50.3537 49.7163 51.2968C49.9954 52.4662 50.579 53.2887 51.1292 53.7702C51.2817 53.9036 51.4327 54.0249 51.5819 54.1367C53.0727 55.2544 55.1386 55.5111 56.9588 55.1129V55.1129C58.0194 54.8809 58.9949 54.3595 59.7771 53.6067L60.3241 53.0802C60.6658 52.7513 60.9627 52.3789 61.2072 51.9725V51.9725C62.3481 50.0757 62.2164 47.6749 60.875 45.9143L60.8389 45.8669" stroke="#FF6F6F" stroke-width="1.5" stroke-linecap="round"/>
<path d="M31.8629 53.0645C31.8629 56.9242 28.252 60.2177 23.5806 60.2177C18.9092 60.2177 15.2983 56.9242 15.2983 53.0645C15.2983 49.2048 18.9092 45.9113 23.5806 45.9113C28.252 45.9113 31.8629 49.2048 31.8629 53.0645Z" fill="#FFF4D6" stroke="#2DD37D" stroke-width="1.5"/>
<path d="M23.5807 51.879L22.6929 52.2674C21.961 52.5876 21.6683 53.4719 22.0647 54.1655V54.1655C22.304 54.5843 22.7493 54.8427 23.2316 54.8427H23.8223C24.3944 54.8427 24.9471 54.6351 25.3776 54.2584L26.0977 53.6282C26.6506 53.1444 26.9678 52.4455 26.9678 51.7108V51.7108C26.9678 50.6281 26.2836 49.6637 25.2617 49.306L24.9435 49.1947C24.7879 49.1402 24.6281 49.0986 24.4658 49.0702L24.0623 48.9996C23.7419 48.9435 23.4171 48.9153 23.0918 48.9153H22.5876C21.0853 48.9153 19.6753 49.6409 18.8021 50.8634V50.8634C18.2385 51.6524 17.8782 52.6117 18.1033 53.5548C18.3824 54.7242 18.966 55.5467 19.5162 56.0282C19.6686 56.1616 19.8197 56.2829 19.9689 56.3947C21.4597 57.5124 23.5256 57.7691 25.3458 57.3709V57.3709C26.4064 57.1389 27.3819 56.6175 28.1641 55.8647L28.7111 55.3382C29.0528 55.0093 29.3497 54.6369 29.5941 54.2305V54.2305C30.735 52.3337 30.6034 49.9329 29.2619 48.1723L29.2259 48.1249" stroke="#2DD37D" stroke-width="1.5" stroke-linecap="round"/>
<path d="M52.1856 55.3226C52.1856 59.1823 48.5747 62.4758 43.9034 62.4758C39.232 62.4758 35.6211 59.1823 35.6211 55.3226C35.6211 51.4629 39.232 48.1694 43.9034 48.1694C48.5747 48.1694 52.1856 51.4629 52.1856 55.3226Z" fill="#FFF4D6" stroke="#6F90FF" stroke-width="1.5"/>
<path d="M43.9035 54.1371L43.0157 54.5255C42.2837 54.8458 41.9911 55.73 42.3875 56.4237V56.4237C42.6268 56.8424 43.0721 57.1008 43.5544 57.1008H44.1451C44.7172 57.1008 45.2698 56.8932 45.7004 56.5165L46.4205 55.8864C46.9734 55.4026 47.2906 54.7036 47.2906 53.9689V53.9689C47.2906 52.8863 46.6063 51.9218 45.5845 51.5642L45.2663 51.4528C45.1107 51.3983 44.9509 51.3567 44.7885 51.3283L44.3851 51.2577C44.0646 51.2016 43.7399 51.1734 43.4145 51.1734H42.9104C41.408 51.1734 39.9981 51.899 39.1248 53.1215V53.1215C38.5613 53.9105 38.2009 54.8698 38.426 55.8129C38.7051 56.9824 39.2887 57.8049 39.8389 58.2863C39.9914 58.4197 40.1425 58.5411 40.2916 58.6529C41.7825 59.7705 43.8483 60.0272 45.6685 59.629V59.629C46.7291 59.397 47.7046 58.8756 48.4869 58.1228L49.0338 57.5963C49.3755 57.2674 49.6724 56.895 49.9169 56.4886V56.4886C51.0578 54.5919 50.9261 52.191 49.5847 50.4304L49.5486 50.3831" stroke="#6F90FF" stroke-width="1.5" stroke-linecap="round"/>
<path d="M38.637 59.8387C38.637 63.6984 35.0261 66.9919 30.3548 66.9919C25.6834 66.9919 22.0725 63.6984 22.0725 59.8387C22.0725 55.979 25.6834 52.6855 30.3548 52.6855C35.0261 52.6855 38.637 55.979 38.637 59.8387Z" fill="#FFF4D6" stroke="#FF6F6F" stroke-width="1.5"/>
<path d="M30.3549 58.6532L29.4671 59.0417C28.7352 59.3619 28.4425 60.2461 28.8389 60.9398V60.9398C29.0782 61.3585 29.5235 61.617 30.0058 61.617H30.5965C31.1686 61.617 31.7212 61.4093 32.1518 61.0326L32.8719 60.4025C33.4248 59.9187 33.742 59.2197 33.742 58.485V58.485C33.742 57.4024 33.0577 56.4379 32.0359 56.0803L31.7177 55.9689C31.5621 55.9144 31.4023 55.8728 31.2399 55.8444L30.8365 55.7738C30.516 55.7177 30.1913 55.6895 29.8659 55.6895H29.3618C27.8594 55.6895 26.4495 56.4151 25.5763 57.6376V57.6376C25.0127 58.4266 24.6524 59.3859 24.8774 60.329C25.1565 61.4985 25.7402 62.321 26.2904 62.8024C26.4428 62.9358 26.5939 63.0572 26.743 63.169C28.2339 64.2866 30.2997 64.5433 32.12 64.1451V64.1451C33.1805 63.9131 34.1561 63.3917 34.9383 62.6389L35.4853 62.1124C35.827 61.7835 36.1239 61.4111 36.3683 61.0047V61.0047C37.5092 59.108 37.3775 56.7071 36.0361 54.9465L36 54.8992" stroke="#FF6F6F" stroke-width="1.5" stroke-linecap="round"/>
<path d="M65.9839 5.64516C65.9839 5.84533 65.8803 6.10314 65.5445 6.41827C65.2089 6.7332 64.6862 7.06074 63.9671 7.38724C62.5321 8.03882 60.424 8.63808 57.7799 9.14586C52.4999 10.1598 45.1842 10.7903 37.0887 10.7903C28.9934 10.7903 21.1298 10.1599 15.3003 9.14431C12.3817 8.63584 9.99625 8.03472 8.35175 7.37815C7.52699 7.04886 6.91741 6.71677 6.52267 6.3952C6.12067 6.06772 6.01611 5.81504 6.01611 5.64516C6.01611 5.47528 6.12067 5.2226 6.52267 4.89512C6.91741 4.57355 7.52699 4.24145 8.35175 3.91217C9.99625 3.2556 12.3817 2.65448 15.3003 2.14601C21.1298 1.13042 28.9934 0.5 37.0887 0.5C45.1842 0.5 52.4999 1.13047 57.7799 2.14446C60.424 2.65224 62.5321 3.2515 63.9671 3.90308C64.6862 4.22958 65.2089 4.55712 65.5445 4.87205C65.8803 5.18718 65.9839 5.44498 65.9839 5.64516Z" stroke="#D9D9D9"/>
<path d="M65.355 6.77417V11.0851C65.355 14.19 66.0779 17.2522 67.4664 20.0293L68.7421 22.5806L69.5697 24.6496C70.5146 27.012 71.0001 29.533 71.0001 32.0774V66.4088C71.0001 68.0441 70.7996 69.6731 70.403 71.2595L69.8924 73.3019C69.1397 76.3127 67.5828 79.0624 65.3883 81.257V81.257C62.4554 84.1898 58.5577 85.9585 54.4192 86.2344L43.9034 86.9355H34.8711" stroke="#D9D9D9" stroke-width="0.8" stroke-linecap="round"/>
<path d="M6.64504 6.77417V11.0851C6.64504 14.19 5.92214 17.2522 4.53359 20.0293L3.25795 22.5806L2.43035 24.6496C1.48539 27.012 0.999882 29.533 0.999882 32.0774V66.4088C0.999882 68.0441 1.20043 69.6731 1.59703 71.2595L2.10761 73.3019C2.86033 76.3127 4.41718 79.0624 6.61171 81.257V81.257C9.54459 84.1898 13.4423 85.9585 17.5808 86.2344L28.0967 86.9355H37.1289" stroke="#D9D9D9" stroke-width="0.8" stroke-linecap="round"/>
<path d="M20.5726 57.5807C20.5726 61.4403 16.9617 64.7339 12.2903 64.7339C7.61894 64.7339 4.00806 61.4403 4.00806 57.5807C4.00806 53.721 7.61894 50.4274 12.2903 50.4274C16.9617 50.4274 20.5726 53.721 20.5726 57.5807Z" fill="#FFF4D6" stroke="#F1DD08" stroke-width="1.5"/>
<path d="M12.2904 56.3952L11.4026 56.7836C10.6707 57.1038 10.378 57.9881 10.7744 58.6817V58.6817C11.0137 59.1005 11.459 59.3589 11.9413 59.3589H12.532C13.1041 59.3589 13.6568 59.1513 14.0873 58.7745L14.8075 58.1444C15.3604 57.6606 15.6775 56.9617 15.6775 56.227V56.227C15.6775 55.1443 14.9933 54.1799 13.9714 53.8222L13.6532 53.7108C13.4976 53.6564 13.3379 53.6147 13.1755 53.5863L12.772 53.5157C12.4516 53.4597 12.1268 53.4315 11.8015 53.4315H11.2974C9.79497 53.4315 8.38507 54.157 7.51181 55.3796V55.3796C6.94823 56.1686 6.5879 57.1278 6.81299 58.071C7.0921 59.2404 7.67571 60.0629 8.22591 60.5443C8.37835 60.6777 8.52942 60.7991 8.67857 60.9109C10.1694 62.0285 12.2353 62.2852 14.0555 61.8871V61.8871C15.1161 61.6551 16.0916 61.1337 16.8738 60.3808L17.4208 59.8544C17.7625 59.5255 18.0594 59.153 18.3038 58.7467V58.7467C19.4447 56.8499 19.3131 54.4491 17.9717 52.6885L17.9356 52.6411" stroke="#F1DD08" stroke-width="1.5" stroke-linecap="round"/>
<path d="M49.9273 66.6129C49.9273 70.4726 46.3164 73.7662 41.645 73.7662C36.9737 73.7662 33.3628 70.4726 33.3628 66.6129C33.3628 62.7533 36.9737 59.4597 41.645 59.4597C46.3164 59.4597 49.9273 62.7533 49.9273 66.6129Z" fill="#FFF4D6" stroke="#F1DD08" stroke-width="1.5"/>
<path d="M41.6452 65.4275L40.7574 65.8159C40.0254 66.1361 39.7328 67.0203 40.1292 67.714V67.714C40.3685 68.1328 40.8138 68.3912 41.2961 68.3912H41.8868C42.4589 68.3912 43.0115 68.1835 43.4421 67.8068L44.1622 67.1767C44.7151 66.6929 45.0323 65.994 45.0323 65.2593V65.2593C45.0323 64.1766 44.348 63.2122 43.3262 62.8545L43.008 62.7431C42.8524 62.6887 42.6926 62.647 42.5302 62.6186L42.1268 62.548C41.8063 62.492 41.4816 62.4638 41.1562 62.4638H40.6521C39.1497 62.4638 37.7398 63.1893 36.8665 64.4119V64.4119C36.303 65.2009 35.9426 66.1601 36.1677 67.1033C36.4468 68.2727 37.0304 69.0952 37.5806 69.5766C37.7331 69.71 37.8842 69.8314 38.0333 69.9432C39.5242 71.0608 41.59 71.3175 43.4102 70.9193V70.9193C44.4708 70.6873 45.4463 70.166 46.2285 69.4131L46.7755 68.8866C47.1172 68.5578 47.4141 68.1853 47.6586 67.7789V67.7789C48.7995 65.8822 48.6678 63.4814 47.3264 61.7207L47.2903 61.6734" stroke="#F1DD08" stroke-width="1.5" stroke-linecap="round"/>
<path d="M40.8951 73.3871C40.8951 77.2468 37.2842 80.5403 32.6128 80.5403C27.9415 80.5403 24.3306 77.2468 24.3306 73.3871C24.3306 69.5274 27.9415 66.2339 32.6128 66.2339C37.2842 66.2339 40.8951 69.5274 40.8951 73.3871Z" fill="#FFF4D6" stroke="#2DD37D" stroke-width="1.5"/>
<path d="M32.6129 72.2017L31.7252 72.5901C30.9932 72.9103 30.7006 73.7945 31.0969 74.4882V74.4882C31.3362 74.9069 31.7815 75.1654 32.2639 75.1654H32.8545C33.4266 75.1654 33.9793 74.9577 34.4098 74.581L35.13 73.9509C35.6829 73.4671 36 72.7681 36 72.0334V72.0334C36 70.9508 35.3158 69.9864 34.2939 69.6287L33.9757 69.5173C33.8201 69.4628 33.6604 69.4212 33.498 69.3928L33.0946 69.3222C32.7741 69.2661 32.4493 69.2379 32.124 69.2379H31.6199C30.1175 69.2379 28.7076 69.9635 27.8343 71.186V71.186C27.2707 71.975 26.9104 72.9343 27.1355 73.8774C27.4146 75.0469 27.9982 75.8694 28.5484 76.3508C28.7009 76.4842 28.8519 76.6056 29.0011 76.7174C30.4919 77.835 32.5578 78.0917 34.378 77.6935V77.6935C35.4386 77.4615 36.4141 76.9401 37.1963 76.1873L37.7433 75.6608C38.085 75.3319 38.3819 74.9595 38.6264 74.5531V74.5531C39.7672 72.6564 39.6356 70.2555 38.2942 68.4949L38.2581 68.4476" stroke="#2DD37D" stroke-width="1.5" stroke-linecap="round"/>
<path d="M65.7339 59.8387C65.7339 63.6984 62.1231 66.9919 57.4517 66.9919C52.7803 66.9919 49.1694 63.6984 49.1694 59.8387C49.1694 55.979 52.7803 52.6855 57.4517 52.6855C62.1231 52.6855 65.7339 55.979 65.7339 59.8387Z" fill="#FFF4D6" stroke="#2DD37D" stroke-width="1.5"/>
<path d="M57.4518 58.6532L56.564 59.0417C55.8321 59.3619 55.5394 60.2461 55.9358 60.9398V60.9398C56.1751 61.3585 56.6204 61.617 57.1027 61.617H57.6934C58.2655 61.617 58.8181 61.4093 59.2487 61.0326L59.9688 60.4025C60.5217 59.9187 60.8389 59.2197 60.8389 58.485V58.485C60.8389 57.4024 60.1547 56.4379 59.1328 56.0803L58.8146 55.9689C58.659 55.9144 58.4992 55.8728 58.3369 55.8444L57.9334 55.7738C57.6129 55.7177 57.2882 55.6895 56.9629 55.6895H56.4587C54.9563 55.6895 53.5464 56.4151 52.6732 57.6376V57.6376C52.1096 58.4266 51.7493 59.3859 51.9744 60.329C52.2535 61.4985 52.8371 62.321 53.3873 62.8024C53.5397 62.9358 53.6908 63.0572 53.8399 63.169C55.3308 64.2866 57.3967 64.5433 59.2169 64.1451V64.1451C60.2774 63.9131 61.253 63.3917 62.0352 62.6389L62.5822 62.1124C62.9239 61.7835 63.2208 61.4111 63.4652 61.0047V61.0047C64.6061 59.108 64.4745 56.7071 63.133 54.9465L63.097 54.8992" stroke="#2DD37D" stroke-width="1.5" stroke-linecap="round"/>
<path d="M29.6048 66.6129C29.6048 70.4726 25.9939 73.7662 21.3225 73.7662C16.6512 73.7662 13.0403 70.4726 13.0403 66.6129C13.0403 62.7533 16.6512 59.4597 21.3225 59.4597C25.9939 59.4597 29.6048 62.7533 29.6048 66.6129Z" fill="#FFF4D6" stroke="#6F90FF" stroke-width="1.5"/>
<path d="M21.3227 65.4275L20.4349 65.8159C19.7029 66.1361 19.4103 67.0203 19.8067 67.714V67.714C20.0459 68.1328 20.4913 68.3912 20.9736 68.3912H21.5643C22.1363 68.3912 22.689 68.1835 23.1195 67.8068L23.8397 67.1767C24.3926 66.6929 24.7097 65.994 24.7097 65.2593V65.2593C24.7097 64.1766 24.0255 63.2122 23.0036 62.8545L22.6854 62.7431C22.5299 62.6887 22.3701 62.647 22.2077 62.6186L21.8043 62.548C21.4838 62.492 21.1591 62.4638 20.8337 62.4638H20.3296C18.8272 62.4638 17.4173 63.1893 16.544 64.4119V64.4119C15.9805 65.2009 15.6201 66.1601 15.8452 67.1033C16.1243 68.2727 16.7079 69.0952 17.2581 69.5766C17.4106 69.71 17.5617 69.8314 17.7108 69.9432C19.2016 71.0608 21.2675 71.3175 23.0877 70.9193V70.9193C24.1483 70.6873 25.1238 70.166 25.906 69.4131L26.453 68.8866C26.7947 68.5578 27.0916 68.1853 27.3361 67.7789V67.7789C28.477 65.8822 28.3453 63.4814 27.0039 61.7207L26.9678 61.6734" stroke="#6F90FF" stroke-width="1.5" stroke-linecap="round"/>
<path d="M58.9598 75.6452C58.9598 79.5048 55.3489 82.7984 50.6775 82.7984C46.0062 82.7984 42.3953 79.5048 42.3953 75.6452C42.3953 71.7855 46.0062 68.4919 50.6775 68.4919C55.3489 68.4919 58.9598 71.7855 58.9598 75.6452Z" fill="#FFF4D6" stroke="#6F90FF" stroke-width="1.5"/>
<path d="M50.6776 74.4597L49.7899 74.8481C49.0579 75.1683 48.7653 76.0526 49.1616 76.7462V76.7462C49.4009 77.165 49.8462 77.4234 50.3285 77.4234H50.9192C51.4913 77.4234 52.044 77.2158 52.4745 76.839L53.1947 76.2089C53.7476 75.7251 54.0647 75.0262 54.0647 74.2915V74.2915C54.0647 73.2088 53.3805 72.2444 52.3586 71.8867L52.0404 71.7754C51.8848 71.7209 51.7251 71.6793 51.5627 71.6508L51.1593 71.5803C50.8388 71.5242 50.514 71.496 50.1887 71.496H49.6846C48.1822 71.496 46.7723 72.2216 45.899 73.4441V73.4441C45.3354 74.2331 44.9751 75.1924 45.2002 76.1355C45.4793 77.3049 46.0629 78.1274 46.6131 78.6089C46.7656 78.7422 46.9166 78.8636 47.0658 78.9754C48.5566 80.0931 50.6225 80.3497 52.4427 79.9516V79.9516C53.5033 79.7196 54.4788 79.1982 55.261 78.4453L55.808 77.9189C56.1497 77.59 56.4466 77.2176 56.6911 76.8112V76.8112C57.8319 74.9144 57.7003 72.5136 56.3589 70.753L56.3228 70.7056" stroke="#6F90FF" stroke-width="1.5" stroke-linecap="round"/>
<path d="M25.0887 73.3871C25.0887 77.2468 21.4778 80.5403 16.8064 80.5403C12.1351 80.5403 8.52417 77.2468 8.52417 73.3871C8.52417 69.5274 12.1351 66.2339 16.8064 66.2339C21.4778 66.2339 25.0887 69.5274 25.0887 73.3871Z" fill="#FFF4D6" stroke="#FF6F6F" stroke-width="1.5"/>
<path d="M16.8065 72.2017L15.9188 72.5901C15.1868 72.9103 14.8942 73.7945 15.2905 74.4882V74.4882C15.5298 74.9069 15.9752 75.1654 16.4575 75.1654H17.0481C17.6202 75.1654 18.1729 74.9577 18.6034 74.581L19.3236 73.9509C19.8765 73.4671 20.1936 72.7681 20.1936 72.0334V72.0334C20.1936 70.9508 19.5094 69.9864 18.4875 69.6287L18.1693 69.5173C18.0137 69.4628 17.854 69.4212 17.6916 69.3928L17.2882 69.3222C16.9677 69.2661 16.6429 69.2379 16.3176 69.2379H15.8135C14.3111 69.2379 12.9012 69.9635 12.0279 71.186V71.186C11.4643 71.975 11.104 72.9343 11.3291 73.8774C11.6082 75.0469 12.1918 75.8694 12.742 76.3508C12.8945 76.4842 13.0455 76.6056 13.1947 76.7174C14.6855 77.835 16.7514 78.0917 18.5716 77.6935V77.6935C19.6322 77.4615 20.6077 76.9401 21.3899 76.1873L21.9369 75.6608C22.2786 75.3319 22.5755 74.9595 22.82 74.5531V74.5531C23.9608 72.6564 23.8292 70.2555 22.4878 68.4949L22.4517 68.4476" stroke="#FF6F6F" stroke-width="1.5" stroke-linecap="round"/>
<path d="M67.992 68.871C67.992 72.7307 64.3811 76.0242 59.7097 76.0242C55.0384 76.0242 51.4275 72.7307 51.4275 68.871C51.4275 65.0113 55.0384 61.7178 59.7097 61.7178C64.3811 61.7178 67.992 65.0113 67.992 68.871Z" fill="#FFF4D6" stroke="#FF6F6F" stroke-width="1.5"/>
<path d="M59.7099 67.6855L58.8221 68.0739C58.0901 68.3942 57.7975 69.2784 58.1939 69.9721V69.9721C58.4332 70.3908 58.8785 70.6492 59.3608 70.6492H59.9515C60.5236 70.6492 61.0762 70.4416 61.5067 70.0649L62.2269 69.4347C62.7798 68.9509 63.097 68.252 63.097 67.5173V67.5173C63.097 66.4347 62.4127 65.4702 61.3909 65.1126L61.0727 65.0012C60.9171 64.9467 60.7573 64.9051 60.5949 64.8767L60.1915 64.8061C59.871 64.75 59.5463 64.7218 59.2209 64.7218H58.7168C57.2144 64.7218 55.8045 65.4474 54.9312 66.6699V66.6699C54.3677 67.4589 54.0073 68.4182 54.2324 69.3613C54.5115 70.5308 55.0951 71.3533 55.6453 71.8347C55.7978 71.9681 55.9489 72.0895 56.098 72.2013C57.5889 73.3189 59.6547 73.5756 61.4749 73.1774V73.1774C62.5355 72.9454 63.511 72.424 64.2932 71.6712L64.8402 71.1447C65.1819 70.8158 65.4788 70.4434 65.7233 70.037V70.037C66.8642 68.1403 66.7325 65.7394 65.3911 63.9788L65.355 63.9315" stroke="#FF6F6F" stroke-width="1.5" stroke-linecap="round"/>
<rect x="55.1936" y="24.8387" width="4.51613" height="24.8387" fill="white"/>
</svg>
