<svg width="305" height="237" viewBox="0 0 305 237" fill="none" xmlns="http://www.w3.org/2000/svg">
<line x1="150.442" y1="57.5986" x2="7.5986" y2="7.55787" stroke="#868686" stroke-width="15" stroke-linecap="round"/>
<path d="M57.6983 227.912L10.2942 61H299.706L252.302 227.912C251.447 230.923 248.697 233 245.568 233H155.673H64.432C61.3026 233 58.5533 230.923 57.6983 227.912Z" stroke="#C8C8C8" stroke-width="8" stroke-linejoin="round"/>
<path d="M152.982 229.098V65.7805" stroke="#C8C8C8" stroke-width="4"/>
<path d="M185.269 227.341L198.722 65.7805" stroke="#C8C8C8" stroke-width="4"/>
<path d="M220.247 227.341L248.498 65.7804" stroke="#C8C8C8" stroke-width="4"/>
<path d="M87.0627 227.341L58.8116 65.7804" stroke="#C8C8C8" stroke-width="4"/>
<path d="M120.695 227.341L105.897 65.7805" stroke="#C8C8C8" stroke-width="4"/>
<line x1="46.704" y1="167.89" x2="272.713" y2="167.89" stroke="#C8C8C8" stroke-width="3"/>
<line x1="54.7758" y1="199.5" x2="259.26" y2="199.5" stroke="#C8C8C8" stroke-width="3"/>
<path d="M33.4999 131.634L276.076 131.634" stroke="#C8C8C8" stroke-width="3"/>
<path d="M24.5066 98.2792L283.497 98.2792" stroke="#C8C8C8" stroke-width="3"/>
</svg>
