<svg width="50" height="67" viewBox="0 0 50 67" fill="none" xmlns="http://www.w3.org/2000/svg">
<path d="M50 36.6801C50 43.5836 37.3053 49.1801 24.6914 49.1801C12.0774 49.1801 0 43.5836 0 36.6801C0 29.7765 12.0774 24.1801 24.6914 24.1801C37.3053 24.1801 50 29.7765 50 36.6801Z" fill="#EFBB52"/>
<path d="M24.7404 34.9599C25.3255 34.8575 25.9241 34.8601 26.5081 34.9677L49.375 39.1801L42.3899 62.4903C41.7559 64.606 39.809 66.0551 37.6003 66.0551H13.4885C11.3576 66.0551 9.46074 64.7044 8.76364 62.6907L0.625 39.1801L24.7404 34.9599Z" fill="#EFBB52"/>
<path d="M25.5459 42.5422L25.6328 42.5712L25.7178 42.5372L28.7578 41.3212L32.4209 42.5422L32.5078 42.5712L32.5928 42.5372L35.625 41.3243L38.6572 42.5372L38.7422 42.5712L38.8291 42.5422L42.4922 41.3212L45.5322 42.5372L45.6364 42.5789L45.7368 42.5287L48.958 40.9181L41.6754 63.8862C41.3131 65.0287 40.2526 65.805 39.054 65.805H12.0129C10.864 65.805 9.83623 65.0909 9.43555 64.0142L1.05612 41.4968L3.65715 42.5372L3.74218 42.5712L3.82906 42.5422L7.49218 41.3212L10.5322 42.5372L10.6115 42.5689L10.6937 42.5454L14.9865 41.3189L18.0322 42.5372L18.1172 42.5712L18.2041 42.5422L21.875 41.3186L25.5459 42.5422Z" fill="white" fill-opacity="0.52" stroke="#CFB683" stroke-width="0.5"/>
<path d="M16.25 47.3051L18.75 61.0551" stroke="#CFB683" stroke-linecap="round"/>
<path d="M22.5 47.3051L23.75 61.0551" stroke="#CFB683" stroke-linecap="round"/>
<path d="M28.75 47.3051L27.5 61.0551" stroke="#CFB683" stroke-linecap="round"/>
<path d="M35 47.3051L32.5 61.0551" stroke="#CFB683" stroke-linecap="round"/>
<path d="M41.25 47.3051L37.5 61.0551" stroke="#CFB683" stroke-linecap="round"/>
<path d="M8.75 47.3051L12.5 61.0551" stroke="#CFB683" stroke-linecap="round"/>
<path d="M38.75 26.0551L38.3294 25.0736C37.7037 23.6138 35.708 23.4306 34.827 24.7521L33.9862 26.0132C33.4155 26.8693 32.7161 27.6322 31.9127 28.2749L31.5151 28.593C30.5144 29.3936 29.3691 29.9943 28.1416 30.3626L23.75 31.6801H29.375H34.5937C34.8638 31.6801 35.133 31.6505 35.3966 31.5919L35.9785 31.4626C38.3923 30.9262 39.724 28.3278 38.75 26.0551Z" fill="#F853B6" stroke="#F853B6" stroke-width="0.2"/>
<path d="M13.931 31.5814L10.6864 30.8604C9.70279 30.6418 9.1865 29.5571 9.6371 28.6559C9.86438 28.2013 10.3002 27.8872 10.8033 27.8153L14.375 27.3051L20.0718 26.2693C20.8545 26.127 21.6174 25.8918 22.3443 25.5687L23.9873 24.8385C25.8666 24.0032 27.4427 22.6088 28.5008 20.8453L28.75 20.4301L29.514 19.0549C30.7288 16.8681 33.6511 16.3592 35.5337 18.0064C36.3861 18.7523 36.875 19.8297 36.875 20.9623V23.2375C36.875 25.0557 36.2246 26.8139 35.0413 28.1943C33.8083 29.6329 32.0832 30.5603 30.2031 30.7953L23.125 31.6801H14.8299C14.5275 31.6801 14.2261 31.647 13.931 31.5814Z" fill="#FF90D3" stroke="#FF90D3"/>
<path d="M15.0344 28.6492L12.2478 28.2512C11.0149 28.075 10.1685 26.9188 10.3733 25.6904C10.5248 24.7813 11.2227 24.0605 12.1264 23.8798L13.4223 23.6206C13.6404 23.577 13.8547 23.5158 14.0629 23.4377L18.75 21.6801L22.8718 19.4318C24.6642 18.4541 26.1144 16.9512 27.0275 15.125L27.9663 13.2474C28.072 13.0361 28.1625 12.8176 28.2372 12.5935L28.9696 10.3963C29.2117 9.66998 29.8914 9.18005 30.6571 9.18005C31.0419 9.18005 31.4164 9.30488 31.7243 9.53581L32.4943 10.1133C33.309 10.7243 33.9014 11.5851 34.1812 12.5643L34.6443 14.1851C34.8803 15.011 35 15.8659 35 16.7249V17.143C35 19.6218 33.899 21.9726 31.9947 23.5595C31.4999 23.9718 30.959 24.3255 30.383 24.6136L26.858 26.376C26.4532 26.5785 26.0345 26.7519 25.6051 26.895L22.3107 27.9931C19.9691 28.7737 17.4779 28.9983 15.0344 28.6492Z" fill="#F853B6" stroke="#F853B6"/>
<path d="M19.6063 23.1564L17.4358 23.6388C15.8419 23.993 14.1818 23.9073 12.6328 23.391C11.9975 23.1792 11.8072 22.3729 12.2807 21.8994L12.5398 21.6403C12.9293 21.2508 13.3503 20.8942 13.7985 20.574L17.5 17.9301L19.8733 16.0314C20.3729 15.6317 20.8267 15.1779 21.2264 14.6783C22.4554 13.142 23.125 11.2332 23.125 9.2658V7.30505V4.71779C23.125 4.42081 23.3658 4.18005 23.6627 4.18005C23.7205 4.18005 23.778 4.18937 23.8328 4.20765L24.916 4.56872C26.5863 5.12549 28.0105 6.24678 28.9436 7.7398L29.3735 8.4276C30.1913 9.73619 30.625 11.2483 30.625 12.7914C30.625 14.5075 30.0888 16.1807 29.0913 17.5772L28.9235 17.8121C27.991 19.1177 26.731 20.1546 25.2704 20.8185L21.575 22.4982C20.9434 22.7853 20.2836 23.0059 19.6063 23.1564Z" fill="#FF90D3" stroke="#FF90D3"/>
<path d="M15.9537 17.5949L16.6414 16.632C17.2104 15.8355 17.8986 15.1311 18.6817 14.5438C21.0854 12.741 22.5 9.91177 22.5 6.90717V6.68005V3.95276C22.5 3.5156 22.9872 3.25486 23.3509 3.49735C24.0252 3.94687 24.5913 4.54052 25.0082 5.23543L25.2151 5.58029C25.8923 6.70888 26.25 8.0003 26.25 9.31646V9.76726C26.25 11.0252 25.9571 12.2658 25.3946 13.3909C24.7278 14.7244 23.706 15.8482 22.4417 16.6384L20.7158 17.7171C19.8274 18.2723 18.8574 18.6845 17.8411 18.9385L17.0099 19.1463C16.1078 19.3719 15.4131 18.3516 15.9537 17.5949Z" fill="#F853B6" stroke="#F853B6"/>
<ellipse cx="17.8984" cy="15.87" rx="5.625" ry="5" transform="rotate(-12.7101 17.8984 15.87)" fill="#C43A3A"/>
<path d="M18.9879 20.7002C20.1517 20.4377 21.2112 19.8531 22.0133 19.0308C22.8154 18.2085 23.3184 17.1912 23.4498 16.1258C23.5811 15.0605 23.334 14.0022 22.7441 13.1041C22.1541 12.206 21.252 11.5145 20.168 11.1295L20.802 12.9086C20.802 12.9086 21.2049 14.794 21.1306 15.3973C21.0562 16.0005 20.0731 18.1986 20.0731 18.1986L18.9879 20.7002Z" fill="#973232"/>
<path d="M16.6012 12.9591L14.6818 10.612C14.1936 10.0151 13.638 9.47657 13.0261 9.00728L11.1325 7.55512C10.4297 7.01611 9.65834 6.57287 8.83874 6.23703L3.01416 3.85034" stroke="#0F6F2D" stroke-width="0.8" stroke-linecap="round"/>
<path d="M15.5193 13.8439L16.3618 13.6538C16.6096 13.598 16.841 13.4851 17.0377 13.3243V13.3243C17.3117 13.1002 17.5057 12.7932 17.5905 12.4495L17.683 12.0745" stroke="#973232" stroke-width="0.8" stroke-linecap="round"/>
</svg>
