<svg width="50" height="65" viewBox="0 0 50 65" fill="none" xmlns="http://www.w3.org/2000/svg">
<path d="M50 35.6251C50 42.5286 37.3053 48.1251 24.6914 48.1251C12.0774 48.1251 0 42.5286 0 35.6251C0 28.7215 12.0774 23.1251 24.6914 23.1251C37.3053 23.1251 50 28.7215 50 35.6251Z" fill="#775148"/>
<path d="M24.7404 33.9049C25.3255 33.8025 25.9241 33.8052 26.5082 33.9127L49.375 38.1251L42.3899 61.4353C41.756 63.551 39.809 65.0001 37.6003 65.0001H13.4886C11.3576 65.0001 9.46074 63.6494 8.76364 61.6357L0.625 38.1251L24.7404 33.9049Z" fill="#775148"/>
<path d="M25.5459 41.4872L25.6328 41.5162L25.7179 41.4822L28.7578 40.2662L32.421 41.4872L32.5078 41.5162L32.5929 41.4822L35.625 40.2693L38.6572 41.4822L38.7422 41.5162L38.8291 41.4872L42.4922 40.2662L45.5322 41.4822L45.6364 41.5239L45.7368 41.4737L48.958 39.8631L41.6754 62.8312C41.3132 63.9738 40.2526 64.7501 39.054 64.7501H12.0129C10.864 64.7501 9.83624 64.0359 9.43555 62.9592L1.05612 40.4418L3.65715 41.4822L3.74218 41.5162L3.82906 41.4872L7.49218 40.2662L10.5322 41.4822L10.6115 41.5139L10.6937 41.4904L14.9865 40.2639L18.0322 41.4822L18.1172 41.5162L18.2041 41.4872L21.875 40.2636L25.5459 41.4872Z" fill="white" fill-opacity="0.52" stroke="#A3817A" stroke-width="0.5"/>
<path d="M16.25 46.2501L18.75 60.0001" stroke="#A3817A" stroke-linecap="round"/>
<path d="M22.5 46.2501L23.75 60.0001" stroke="#A3817A" stroke-linecap="round"/>
<path d="M28.75 46.2501L27.5 60.0001" stroke="#A3817A" stroke-linecap="round"/>
<path d="M35 46.2501L32.5 60.0001" stroke="#A3817A" stroke-linecap="round"/>
<path d="M41.25 46.2501L37.5 60.0001" stroke="#A3817A" stroke-linecap="round"/>
<path d="M8.75 46.2501L12.5 60.0001" stroke="#A3817A" stroke-linecap="round"/>
<path d="M40 25.6251L39.5794 24.6436C38.9537 23.1838 36.958 23.0006 36.077 24.3221L35.2362 25.5833C34.6655 26.4393 33.9661 27.2022 33.1627 27.8449L32.7651 28.163C31.7644 28.9636 30.6191 29.5643 29.3916 29.9326L25 31.2501H30.625H35.8437C36.1138 31.2501 36.383 31.2205 36.6466 31.1619L37.2285 31.0326C39.6423 30.4962 40.974 27.8978 40 25.6251Z" fill="#D6AE5F" stroke="#D6AE5F" stroke-width="0.2"/>
<path d="M15.181 31.1514L11.9364 30.4304C10.9528 30.2118 10.4365 29.1271 10.8871 28.2259C11.1144 27.7713 11.5502 27.4572 12.0533 27.3853L15.625 26.8751L21.3218 25.8393C22.1045 25.697 22.8674 25.4618 23.5943 25.1387L25.2373 24.4085C27.1166 23.5732 28.6927 22.1788 29.7508 20.4153L30 20.0001L30.764 18.6249C31.9788 16.4381 34.9011 15.9292 36.7837 17.5764C37.6361 18.3223 38.125 19.3997 38.125 20.5323V22.8229C38.125 24.6311 37.4782 26.3797 36.3014 27.7526C35.0627 29.1977 33.3255 30.1235 31.4352 30.3459L23.75 31.2501H16.0799C15.7775 31.2501 15.4761 31.217 15.181 31.1514Z" fill="#FFF2C5" stroke="#FFF2C5"/>
<path d="M16.2844 28.2193L13.4978 27.8212C12.2649 27.645 11.4185 26.4888 11.6233 25.2604C11.7748 24.3513 12.4727 23.6305 13.3764 23.4498L14.6723 23.1906C14.8904 23.147 15.1047 23.0858 15.3129 23.0077L20 21.2501L24.1218 19.0018C25.9142 18.0241 27.3644 16.5212 28.2775 14.695L29.2163 12.8174C29.322 12.6061 29.4125 12.3876 29.4872 12.1635L30.2196 9.96634C30.4617 9.23999 31.1414 8.75006 31.9071 8.75006C32.2919 8.75006 32.6664 8.87489 32.9743 9.10582L33.7443 9.68328C34.559 10.2943 35.1514 11.1551 35.4312 12.1343L35.8943 13.7551C36.1303 14.581 36.25 15.4359 36.25 16.2949V16.713C36.25 19.1918 35.149 21.5426 33.2447 23.1295C32.7499 23.5418 32.209 23.8955 31.633 24.1836L28.108 25.946C27.7032 26.1485 27.2845 26.3219 26.8551 26.465L23.5607 27.5631C21.2191 28.3437 18.7279 28.5683 16.2844 28.2193Z" fill="#D6AE5F" stroke="#D6AE5F"/>
<path d="M20.8563 22.7264L18.6858 23.2088C17.0919 23.563 15.4318 23.4773 13.8828 22.961C13.2475 22.7492 13.0572 21.9429 13.5307 21.4694L13.7898 21.2103C14.1793 20.8208 14.6003 20.4642 15.0485 20.144L18.75 17.5001L21.1233 15.6014C21.6229 15.2018 22.0767 14.7479 22.4764 14.2483C23.7054 12.712 24.375 10.8032 24.375 8.8358V6.87506V4.2878C24.375 3.99081 24.6158 3.75006 24.9127 3.75006C24.9705 3.75006 25.028 3.75938 25.0828 3.77766L26.166 4.13873C27.8363 4.6955 29.2605 5.81678 30.1936 7.30981L30.6235 7.9976C31.4413 9.3062 31.875 10.8183 31.875 12.3614C31.875 14.0775 31.3388 15.7507 30.3413 17.1472L30.1735 17.3821C29.241 18.6877 27.981 19.7246 26.5204 20.3885L22.825 22.0682C22.1934 22.3553 21.5336 22.5759 20.8563 22.7264Z" fill="#FFF2C5" stroke="#FFF2C5"/>
<path d="M17.2037 17.1649L17.8914 16.202C18.4604 15.4055 19.1486 14.7011 19.9317 14.1138C22.3354 12.311 23.75 9.48178 23.75 6.47718V6.25006V3.52276C23.75 3.08561 24.2372 2.82487 24.6009 3.06735C25.2752 3.51688 25.8413 4.11053 26.2582 4.80544L26.4651 5.15029C27.1423 6.27889 27.5 7.5703 27.5 8.88646V9.33726C27.5 10.5952 27.2071 11.8358 26.6446 12.9609C25.9778 14.2945 24.956 15.4182 23.6917 16.2084L21.9658 17.2871C21.0774 17.8423 20.1074 18.2545 19.0911 18.5085L18.2599 18.7163C17.3578 18.9419 16.6631 17.9217 17.2037 17.1649Z" fill="#D6AE5F" stroke="#D6AE5F"/>
<ellipse cx="18.6343" cy="15.87" rx="5.625" ry="5" transform="rotate(-12.7101 18.6343 15.87)" fill="#C43A3A"/>
<path d="M19.7237 20.7002C20.8876 20.4377 21.9471 19.8531 22.7491 19.0308C23.5512 18.2085 24.0543 17.1912 24.1856 16.1258C24.317 15.0605 24.0698 14.0022 23.4799 13.1041C22.89 12.206 21.9878 11.5145 20.9038 11.1295L21.5379 12.9086C21.5379 12.9086 21.9408 14.794 21.8664 15.3973C21.792 16.0005 20.8089 18.1986 20.8089 18.1986L19.7237 20.7002Z" fill="#973232"/>
<path d="M17.337 12.9591L15.4176 10.612C14.9295 10.0151 14.3739 9.47657 13.7619 9.00728L11.8684 7.55512C11.1655 7.01611 10.3942 6.57287 9.57458 6.23703L3.75 3.85034" stroke="#0F6F2D" stroke-width="0.8" stroke-linecap="round"/>
<path d="M16.2551 13.8439L17.0977 13.6538C17.3455 13.598 17.5769 13.4851 17.7735 13.3243V13.3243C18.0476 13.1002 18.2416 12.7932 18.3263 12.4495L18.4188 12.0745" stroke="#973232" stroke-width="0.8" stroke-linecap="round"/>
</svg>
