<svg width="50" height="44" viewBox="0 0 50 44" fill="none" xmlns="http://www.w3.org/2000/svg">
<g clip-path="url(#clip0_18_156)">
<mask id="path-1-inside-1_18_156" fill="white">
<path fill-rule="evenodd" clip-rule="evenodd" d="M24.9755 44C38.769 44 49.9509 36.8071 49.9509 23C50.8695 5.5 38.769 0 24.9755 0C11.1819 0 0 9.19288 0 23C0 38 9.90975 43 24.9755 44ZM24.3955 26C27.9818 26 31.8881 25 31.3886 20.5C30.8891 16 27.9818 16 24.3955 16C20.8092 16 16.9029 18.4624 16.9029 21.5C16.9029 24.5376 20.8092 26 24.3955 26Z"/>
</mask>
<path fill-rule="evenodd" clip-rule="evenodd" d="M24.9755 44C38.769 44 49.9509 36.8071 49.9509 23C50.8695 5.5 38.769 0 24.9755 0C11.1819 0 0 9.19288 0 23C0 38 9.90975 43 24.9755 44ZM24.3955 26C27.9818 26 31.8881 25 31.3886 20.5C30.8891 16 27.9818 16 24.3955 16C20.8092 16 16.9029 18.4624 16.9029 21.5C16.9029 24.5376 20.8092 26 24.3955 26Z" fill="#D6AE5F"/>
<path d="M49.9509 23L48.9523 22.9476L48.9509 22.9738V23H49.9509ZM24.9755 44L24.9092 44.9978L24.9423 45H24.9755V44ZM31.3886 20.5L30.3947 20.6103L30.3947 20.6103L31.3886 20.5ZM48.9509 23C48.9509 29.6017 46.2926 34.5583 42.0208 37.8891C37.7203 41.2423 31.7116 43 24.9755 43V45C32.0328 45 38.5118 43.1613 43.2506 39.4663C48.0182 35.7488 50.9509 30.2054 50.9509 23H48.9509ZM24.9755 1C31.7695 1 37.9857 2.35958 42.3708 5.73033C46.6959 9.05503 49.3978 14.46 48.9523 22.9476L50.9495 23.0524C51.4226 14.04 48.5335 7.94497 43.5897 4.14467C38.7057 0.390423 31.975 -1 24.9755 -1V1ZM1 23C1 9.85119 11.6218 1 24.9755 1V-1C10.742 -1 -1 8.53457 -1 23H1ZM25.0417 43.0022C17.5694 42.5062 11.5621 41.0237 7.43567 37.9482C3.37766 34.9238 1 30.2514 1 23H-1C-1 30.7486 1.57721 36.0762 6.2405 39.5518C10.8353 42.9763 17.3158 44.4938 24.9092 44.9978L25.0417 43.0022ZM30.3947 20.6103C30.5032 21.5872 30.3652 22.2972 30.1111 22.8218C29.858 23.3442 29.4547 23.755 28.9121 24.0786C27.7864 24.7499 26.1366 25 24.3955 25V27C26.2407 27 28.3372 26.7501 29.9365 25.7964C30.7562 25.3075 31.4601 24.6245 31.911 23.6938C32.3608 22.7653 32.5238 21.6628 32.3825 20.3897L30.3947 20.6103ZM24.3955 17C26.2629 17 27.6378 17.0192 28.6358 17.4729C29.0918 17.6801 29.4573 17.9775 29.7436 18.4316C30.0387 18.8999 30.281 19.5858 30.3947 20.6103L32.3825 20.3897C32.2465 19.1642 31.9381 18.1626 31.4355 17.3652C30.9241 16.5538 30.245 16.0074 29.4634 15.6521C27.9864 14.9808 26.1144 15 24.3955 15V17ZM17.9029 21.5C17.9029 20.4313 18.5995 19.323 19.877 18.4307C21.1392 17.549 22.8135 17 24.3955 17V15C22.3912 15 20.3192 15.6822 18.7317 16.7911C17.1594 17.8894 15.9029 19.5311 15.9029 21.5H17.9029ZM24.3955 25C22.7169 25 21.0132 24.6544 19.7678 24.003C18.5267 23.3538 17.9029 22.5064 17.9029 21.5H15.9029C15.9029 23.5311 17.2322 24.9338 18.8408 25.7752C20.4452 26.6144 22.4878 27 24.3955 27V25Z" fill="#EFBB52" mask="url(#path-1-inside-1_18_156)"/>
<path d="M26.9735 14.5L27.2944 13.7772C28.3661 11.3636 30.3735 9.4897 32.8551 8.58642L33.3995 8.38823C34.1052 8.13139 34.8503 8 35.6012 8V8C38.234 8 40.3327 9.72846 39.8391 12.3146C39.7886 12.5793 39.7374 12.8254 39.6897 13.0434C39.5498 13.6823 39.2966 14.2855 38.9707 14.8525C38.1676 16.2495 36.5531 19.064 35.4652 21L30.9696 27L28.7161 30.7596C28.2236 31.5812 27.8667 32.4767 27.6591 33.4118L27.1721 35.6056C27.0436 36.1842 27.1181 36.7894 27.3829 37.3196V37.3196C27.9944 38.5437 29.4544 39.0786 30.7119 38.5391L31.2114 38.3249C31.7079 38.1119 32.1436 37.777 32.4575 37.3372C34.1516 34.9637 36.6009 30.8632 36.9637 30.5C37.3084 30.1549 38.9171 27.0562 40.3145 24.2856C40.7391 23.4437 41.3723 22.7247 42.1565 22.2014L42.7939 21.7761C44.3786 20.7185 46.4657 20.8091 47.9529 22V22" stroke="#775148" stroke-width="2" stroke-linecap="round"/>
<path d="M39.4051 29.0705C39.7474 28.6341 40.448 28.8913 40.4273 29.4457V29.4457C40.4181 29.6937 40.5695 29.9194 40.8024 30.0049V30.0049C41.3231 30.1961 41.295 30.9422 40.7617 31.0939V31.0939C40.5232 31.1617 40.3553 31.3757 40.3461 31.6236V31.6236C40.3254 32.1779 39.6077 32.3824 39.2989 31.9217V31.9217C39.1607 31.7155 38.9055 31.6218 38.6669 31.6897V31.6897C38.1336 31.8413 37.7182 31.2208 38.0604 30.7846V30.7846C38.2135 30.5895 38.2236 30.3176 38.0855 30.1115V30.1115C37.7766 29.6506 38.2371 29.0632 38.7578 29.2544V29.2544C38.9906 29.3398 39.252 29.2656 39.4051 29.0705V29.0705Z" fill="#603F37" stroke="#FFF8EF" stroke-width="0.2"/>
<path d="M27.2757 36.8465C27.8071 37.0058 27.8244 37.7522 27.3008 37.936V37.936C27.0668 38.0181 26.9123 38.2418 26.918 38.4897V38.4897C26.9308 39.0441 26.2266 39.2917 25.8906 38.8505V38.8505C25.7403 38.6532 25.4799 38.5752 25.2458 38.6574V38.6574C24.7225 38.8411 24.2705 38.2469 24.5858 37.7907V37.7907C24.7268 37.5867 24.7205 37.3146 24.5702 37.1172V37.1172C24.2342 36.6761 24.6583 36.0617 25.1894 36.221V36.221C25.4271 36.2922 25.6836 36.2022 25.8247 35.9981V35.9981C26.1399 35.5419 26.8548 35.7566 26.8676 36.311V36.311C26.8734 36.559 27.0381 36.7752 27.2757 36.8465V36.8465Z" fill="#FFF8EF" stroke="#7B6451" stroke-width="0.2"/>
<path d="M42.0094 25.5346C42.5634 25.5052 42.8311 26.2021 42.4002 26.5518V26.5518C42.2076 26.7081 42.1374 26.9708 42.2263 27.2024V27.2024C42.4252 27.7201 41.8457 28.1907 41.3807 27.8888V27.8888C41.1727 27.7538 40.9013 27.7682 40.7086 27.9246V27.9246C40.2779 28.2741 39.6522 27.8675 39.7953 27.3315V27.3315C39.8593 27.0918 39.7617 26.8378 39.5538 26.7028V26.7028C39.0887 26.4009 39.2811 25.6793 39.8348 25.65V25.65C40.0825 25.6368 40.2936 25.4655 40.3576 25.2258V25.2258C40.5008 24.6898 41.246 24.6505 41.4449 25.1682V25.1682C41.5338 25.3997 41.7618 25.5477 42.0094 25.5346V25.5346Z" fill="#FFF8EF" stroke="#7B6451" stroke-width="0.2"/>
<path d="M2.99707 22.5C4.5955 17.3 7.15964 14 8.49167 12L10.9887 8.56326C11.9773 7.20259 13.2377 6.06209 14.6901 5.21401L17.2885 3.69679C18.0596 3.24652 18.9641 3.08045 19.8449 3.22739L20.432 3.32534C21.0999 3.43677 21.6919 3.81979 22.0672 4.38338V4.38338C22.335 4.78546 22.4779 5.25777 22.4779 5.74086V6.82787C22.4779 7.92206 22.1808 8.99571 21.6182 9.93421L19.4809 13.5L14.4858 20.5L11.2489 26.0082C10.0977 27.9671 9.49068 30.198 9.49068 32.4702V34.2327C9.49068 35.3892 9.80472 36.5239 10.3993 37.5158L10.6288 37.8987C10.8672 38.2964 11.1745 38.6484 11.5364 38.9382V38.9382C12.7252 39.8902 14.3592 40.0633 15.7211 39.3817L16.1149 39.1846C17.0028 38.7402 17.7227 38.0198 18.1664 37.1316L19.9804 33.5L22.4779 28" stroke="#775148" stroke-width="2" stroke-linecap="round"/>
<path d="M35.9105 22.181C36.0781 21.6523 36.8245 21.6471 36.9994 22.1735V22.1735C37.0776 22.4089 37.2986 22.5671 37.5466 22.5654V22.5654C38.1013 22.5615 38.3364 23.2701 37.8901 23.5995V23.5995C37.6905 23.7467 37.6083 24.0061 37.6865 24.2414V24.2414C37.8613 24.7676 37.261 25.2113 36.8103 24.8883V24.8883C36.6086 24.7437 36.3368 24.7456 36.1371 24.893V24.893C35.6909 25.2222 35.0845 24.7868 35.2521 24.2583V24.2583C35.327 24.0219 35.2412 23.7637 35.0397 23.6192V23.6192C34.5888 23.2961 34.8141 22.5843 35.3688 22.5804V22.5804C35.6168 22.5787 35.8356 22.4175 35.9105 22.181V22.181Z" fill="#603F37" stroke="#FFF8EF" stroke-width="0.2"/>
<path d="M37.9946 13.3087C38.5492 13.2988 38.7922 14.0047 38.3493 14.339V14.339C38.1513 14.4885 38.0719 14.7485 38.1527 14.9831V14.9831C38.3332 15.5074 37.7375 15.9574 37.2834 15.6393V15.6393C37.0803 15.497 36.8085 15.5019 36.6105 15.6514V15.6514C36.1677 15.9855 35.5567 15.5571 35.7186 15.0265V15.0265C35.791 14.7891 35.7024 14.5319 35.4993 14.3896V14.3896C35.0452 14.0715 35.2628 13.3572 35.8172 13.3473V13.3473C36.0652 13.3429 36.2822 13.1792 36.3547 12.9418V12.9418C36.5166 12.4112 37.2628 12.3983 37.4433 12.9227V12.9227C37.524 13.1572 37.7466 13.3131 37.9946 13.3087V13.3087Z" fill="#FFF8EF" stroke="#7B6451" stroke-width="0.2"/>
<path d="M10.9443 34.1773C11.1156 33.6497 11.8619 33.6497 12.0332 34.1773V34.1773C12.1098 34.4132 12.3296 34.5729 12.5777 34.5729V34.5729C13.1324 34.5729 13.3626 35.2831 12.914 35.6094V35.6094C12.7134 35.7553 12.6294 36.014 12.706 36.2499V36.2499C12.8772 36.7773 12.2738 37.2168 11.8254 36.8907V36.8907C11.6247 36.7448 11.3528 36.7448 11.1521 36.8907V36.8907C10.7037 37.2168 10.1003 36.7773 10.2715 36.2499V36.2499C10.3481 36.014 10.2641 35.7553 10.0635 35.6094V35.6094C9.61493 35.2831 9.84515 34.5729 10.3998 34.5729V34.5729C10.6479 34.5729 10.8677 34.4132 10.9443 34.1773V34.1773Z" fill="#603F37" stroke="#FFF8EF" stroke-width="0.2"/>
<path d="M15.1711 15.0856C15.4497 14.6061 16.1792 14.7637 16.2354 15.3156V15.3156C16.2606 15.5624 16.4418 15.765 16.6842 15.8174V15.8174C17.2264 15.9346 17.3018 16.6774 16.7945 16.9016V16.9016C16.5677 17.0018 16.431 17.237 16.4562 17.4838V17.4838C16.5123 18.0355 15.8299 18.3376 15.4603 17.9241V17.9241C15.2949 17.739 15.0292 17.6816 14.8022 17.7819V17.7819C14.2951 18.006 13.798 17.449 14.0765 16.9696V16.9696C14.2011 16.7551 14.1735 16.4844 14.0082 16.2995V16.2995C13.6385 15.8859 14.0133 15.2403 14.5554 15.3574V15.3574C14.7979 15.4098 15.0465 15.3001 15.1711 15.0856V15.0856Z" fill="#603F37" stroke="#FFF8EF" stroke-width="0.2"/>
<path d="M11.5585 19.5024C11.4923 18.9515 12.1694 18.6374 12.5465 19.0441V19.0441C12.7151 19.226 12.9816 19.2785 13.2067 19.1741V19.1741C13.7099 18.9407 14.2172 19.4881 13.9472 19.9729V19.9729C13.8265 20.1897 13.8589 20.4598 14.0275 20.6416V20.6416C14.4045 21.0482 14.0415 21.7008 13.4976 21.5936V21.5936C13.2542 21.5456 13.0076 21.66 12.8868 21.8769V21.8769C12.6169 22.3616 11.8849 22.2169 11.8187 21.6662V21.6662C11.7891 21.4199 11.6042 21.2205 11.3609 21.1725V21.1725C10.8169 21.0653 10.7276 20.324 11.2308 20.0906V20.0906C11.4558 19.9862 11.5882 19.7487 11.5585 19.5024V19.5024Z" fill="#FFF8EF" stroke="#7B6451" stroke-width="0.2"/>
<path d="M16.3233 36.0784C16.6328 35.6182 17.3504 35.8234 17.3703 36.3778V36.3778C17.3792 36.6258 17.5467 36.8398 17.7852 36.9081V36.9081C18.3185 37.0606 18.345 37.8068 17.8242 37.9971V37.9971C17.5913 38.0822 17.4395 38.3079 17.4484 38.5558V38.5558C17.4682 39.1101 16.7675 39.3667 16.4258 38.9297V38.9297C16.2729 38.7342 16.0115 38.6595 15.7785 38.7446V38.7446C15.2578 38.9349 14.7982 38.3464 15.1076 37.8864V37.8864C15.246 37.6806 15.2362 37.4087 15.0834 37.2132V37.2132C14.7416 36.7762 15.1579 36.1567 15.6912 36.3092V36.3092C15.9297 36.3774 16.185 36.2842 16.3233 36.0784V36.0784Z" fill="#603F37" stroke="#FFF8EF" stroke-width="0.2"/>
</g>
<path d="M31.4526 4.67727C31.6239 4.14969 32.3702 4.14969 32.5415 4.67727V4.67727C32.6181 4.91319 32.8379 5.07295 33.086 5.07295V5.07295C33.6407 5.07295 33.8709 5.78314 33.4223 6.10938V6.10938C33.2217 6.25525 33.1377 6.51404 33.2143 6.74993V6.74993C33.3855 7.27733 32.7821 7.71684 32.3337 7.39071V7.39071C32.133 7.24476 31.8611 7.24476 31.6604 7.39071V7.39071C31.212 7.71684 30.6086 7.27733 30.7798 6.74993V6.74993C30.8564 6.51404 30.7724 6.25525 30.5718 6.10938V6.10938C30.1232 5.78314 30.3535 5.07295 30.9081 5.07295V5.07295C31.1562 5.07295 31.376 4.91319 31.4526 4.67727V4.67727Z" fill="#603F37" stroke="#FFF8EF" stroke-width="0.2"/>
<path d="M6.45261 22.6773C6.62386 22.1497 7.37024 22.1497 7.5415 22.6773V22.6773C7.61808 22.9132 7.83794 23.0729 8.08598 23.0729V23.0729C8.64065 23.0729 8.87088 23.7831 8.42229 24.1094V24.1094C8.22172 24.2553 8.13771 24.514 8.21428 24.7499V24.7499C8.38548 25.2773 7.78211 25.7168 7.33368 25.3907V25.3907C7.13299 25.2448 6.86111 25.2448 6.66043 25.3907V25.3907C6.21199 25.7168 5.60863 25.2773 5.77982 24.7499V24.7499C5.85639 24.514 5.77239 24.2553 5.57181 24.1094V24.1094C5.12323 23.7831 5.35345 23.0729 5.90812 23.0729V23.0729C6.15617 23.0729 6.37603 22.9132 6.45261 22.6773V22.6773Z" fill="#603F37" stroke="#FFF8EF" stroke-width="0.2"/>
<path d="M22.7967 6.95048C22.7305 6.39962 23.4076 6.08556 23.7846 6.49225V6.49225C23.9532 6.67412 24.2198 6.72658 24.4448 6.6222V6.6222C24.948 6.3888 25.4553 6.93626 25.1853 7.42104V7.42104C25.0646 7.63782 25.0971 7.90791 25.2657 8.08977V8.08977C25.6426 8.49637 25.2797 9.14892 24.7357 9.04173V9.04173C24.4924 8.99376 24.2458 9.10815 24.125 9.325V9.325C23.8551 9.80969 23.123 9.66504 23.0568 9.1143V9.1143C23.0272 8.86798 22.8423 8.66858 22.5991 8.62064V8.62064C22.055 8.51342 21.9657 7.77209 22.4689 7.53869V7.53869C22.694 7.43431 22.8263 7.19682 22.7967 6.95048V6.95048Z" fill="#FFF8EF" stroke="#7B6451" stroke-width="0.2"/>
<path d="M30.7967 8.95048C30.7305 8.39962 31.4076 8.08556 31.7846 8.49225V8.49225C31.9532 8.67412 32.2198 8.72658 32.4448 8.6222V8.6222C32.948 8.3888 33.4553 8.93626 33.1853 9.42104V9.42104C33.0646 9.63782 33.0971 9.90791 33.2657 10.0898V10.0898C33.6426 10.4964 33.2797 11.1489 32.7357 11.0417V11.0417C32.4924 10.9938 32.2458 11.1081 32.125 11.325V11.325C31.8551 11.8097 31.123 11.665 31.0568 11.1143V11.1143C31.0272 10.868 30.8423 10.6686 30.5991 10.6206V10.6206C30.055 10.5134 29.9657 9.77209 30.4689 9.53869V9.53869C30.694 9.43431 30.8263 9.19682 30.7967 8.95048V8.95048Z" fill="#FFF8EF" stroke="#7B6451" stroke-width="0.2"/>
<path d="M19.7967 27.9505C19.7305 27.3996 20.4076 27.0856 20.7846 27.4923V27.4923C20.9532 27.6741 21.2198 27.7266 21.4448 27.6222V27.6222C21.948 27.3888 22.4553 27.9363 22.1853 28.421V28.421C22.0646 28.6378 22.0971 28.9079 22.2657 29.0898V29.0898C22.6426 29.4964 22.2797 30.1489 21.7357 30.0417V30.0417C21.4924 29.9938 21.2458 30.1081 21.125 30.325V30.325C20.8551 30.8097 20.123 30.665 20.0568 30.1143V30.1143C20.0272 29.868 19.8423 29.6686 19.5991 29.6206V29.6206C19.055 29.5134 18.9657 28.7721 19.4689 28.5387V28.5387C19.694 28.4343 19.8263 28.1968 19.7967 27.9505V27.9505Z" fill="#FFF8EF" stroke="#7B6451" stroke-width="0.2"/>
<defs>
<clipPath id="clip0_18_156">
<rect width="50" height="44" fill="white"/>
</clipPath>
</defs>
</svg>
