<svg width="50" height="44" viewBox="0 0 50 44" fill="none" xmlns="http://www.w3.org/2000/svg">
<mask id="path-1-inside-1_19_559" fill="white">
<path fill-rule="evenodd" clip-rule="evenodd" d="M24.9755 43.9568C38.769 43.9568 49.9509 36.771 49.9509 22.9774C50.8695 5.4946 38.769 0 24.9755 0C11.1819 0 0 9.18385 0 22.9774C0 37.9627 9.90975 42.9578 24.9755 43.9568ZM24.3955 25.9745C27.9818 25.9745 31.8881 24.9754 31.3886 20.4799C30.8891 15.9843 27.9818 15.9843 24.3955 15.9843C20.8092 15.9843 16.9029 18.4443 16.9029 21.4789C16.9029 24.5135 20.8092 25.9745 24.3955 25.9745Z"/>
</mask>
<path fill-rule="evenodd" clip-rule="evenodd" d="M24.9755 43.9568C38.769 43.9568 49.9509 36.771 49.9509 22.9774C50.8695 5.4946 38.769 0 24.9755 0C11.1819 0 0 9.18385 0 22.9774C0 37.9627 9.90975 42.9578 24.9755 43.9568ZM24.3955 25.9745C27.9818 25.9745 31.8881 24.9754 31.3886 20.4799C30.8891 15.9843 27.9818 15.9843 24.3955 15.9843C20.8092 15.9843 16.9029 18.4443 16.9029 21.4789C16.9029 24.5135 20.8092 25.9745 24.3955 25.9745Z" fill="#7C21A6"/>
<path d="M49.9509 22.9774L48.9523 22.9249L48.9509 22.9512V22.9774H49.9509ZM24.9755 43.9568L24.9093 44.9546L24.9423 44.9568H24.9755V43.9568ZM31.3886 20.4799L30.3947 20.5903L30.3947 20.5903L31.3886 20.4799ZM48.9509 22.9774C48.9509 29.5719 46.2929 34.5233 42.0212 37.8508C37.7207 41.2007 31.7119 42.9568 24.9755 42.9568V44.9568C32.0326 44.9568 38.5115 43.1199 43.2503 39.4286C48.0179 35.7148 50.9509 30.1765 50.9509 22.9774H48.9509ZM24.9755 1C31.7696 1 37.9861 2.35829 42.3712 5.72577C46.6962 9.04711 49.3977 14.4464 48.9523 22.9249L50.9495 23.0299C51.4226 14.0256 48.5333 7.93619 43.5893 4.13953C38.7054 0.38901 31.9748 -1 24.9755 -1V1ZM1 22.9774C1 9.84302 11.6209 1 24.9755 1V-1C10.7429 -1 -1 8.52468 -1 22.9774H1ZM25.0416 42.959C17.5693 42.4635 11.5618 40.9823 7.4353 37.9098C3.37739 34.8885 1 30.221 1 22.9774H-1C-1 30.7191 1.57749 36.0418 6.24088 39.514C10.8357 42.9352 17.3159 44.4511 24.9093 44.9546L25.0416 42.959ZM30.3947 20.5903C30.5031 21.5659 30.3653 22.2748 30.1112 22.7986C29.8583 23.3203 29.4552 23.7306 28.9124 24.0539C27.7867 24.7246 26.1367 24.9745 24.3955 24.9745V26.9745C26.2406 26.9745 28.3369 26.7248 29.9361 25.7721C30.7558 25.2837 31.4598 24.6014 31.9108 23.6713C32.3608 22.7434 32.5239 21.6416 32.3825 20.3694L30.3947 20.5903ZM24.3955 16.9843C26.2628 16.9843 27.638 17.0035 28.6362 17.4568C29.0923 17.6639 29.4577 17.9609 29.7438 18.4144C30.0388 18.882 30.281 19.5669 30.3947 20.5903L32.3825 20.3694C32.2465 19.145 31.938 18.1441 31.4353 17.3473C30.9237 16.5364 30.2445 15.9905 29.4631 15.6357C27.9862 14.9651 26.1145 14.9843 24.3955 14.9843V16.9843ZM17.9029 21.4789C17.9029 20.4122 18.599 19.3052 19.8766 18.4137C21.1388 17.5328 22.8133 16.9843 24.3955 16.9843V14.9843C22.3914 14.9843 20.3196 15.6657 18.732 16.7735C17.1599 17.8707 15.9029 19.511 15.9029 21.4789H17.9029ZM24.3955 24.9745C22.7168 24.9745 21.0129 24.6292 19.7675 23.9783C18.526 23.3296 17.9029 22.4833 17.9029 21.4789H15.9029C15.9029 23.509 17.2329 24.9105 18.8412 25.7509C20.4454 26.5892 22.4879 26.9745 24.3955 26.9745V24.9745Z" fill="#EFBB52" mask="url(#path-1-inside-1_19_559)"/>
<path d="M16.603 35.1374C16.7227 34.7689 17.2441 34.7689 17.3638 35.1374L17.5665 35.7611C17.62 35.9259 17.7736 36.0375 17.9469 36.0375H18.6027C18.9902 36.0375 19.1513 36.5334 18.8378 36.7611L18.3072 37.1466C18.167 37.2485 18.1084 37.429 18.1619 37.5938L18.3646 38.2175C18.4843 38.586 18.0625 38.8925 17.749 38.6647L17.2185 38.2793C17.0783 38.1774 16.8885 38.1774 16.7483 38.2793L16.2177 38.6647C15.9042 38.8925 15.4824 38.586 15.6022 38.2175L15.8048 37.5938C15.8584 37.429 15.7997 37.2485 15.6595 37.1466L15.129 36.7611C14.8155 36.5334 14.9766 36.0375 15.3641 36.0375H16.0199C16.1932 36.0375 16.3468 35.9259 16.4003 35.7611L16.603 35.1374Z" fill="#FB80FF"/>
<path d="M26.5929 33.1394C26.7127 32.7709 27.2341 32.7709 27.3538 33.1394L27.5564 33.7631C27.61 33.9279 27.7636 34.0395 27.9369 34.0395H28.5927C28.9802 34.0395 29.1413 34.5353 28.8278 34.7631L28.2972 35.1486C28.157 35.2504 28.0984 35.431 28.1519 35.5958L28.3546 36.2195C28.4743 36.588 28.0525 36.8944 27.739 36.6667L27.2085 36.2812C27.0683 36.1794 26.8785 36.1794 26.7383 36.2812L26.2077 36.6667C25.8942 36.8944 25.4724 36.588 25.5922 36.2195L25.7948 35.5958C25.8484 35.431 25.7897 35.2504 25.6495 35.1486L25.119 34.7631C24.8055 34.5353 24.9666 34.0395 25.3541 34.0395H26.0099C26.1832 34.0395 26.3367 33.9279 26.3903 33.7631L26.5929 33.1394Z" fill="#FB80FF"/>
<path d="M19.6 27.1453C19.7198 26.7768 20.2411 26.7768 20.3609 27.1453L20.5635 27.769C20.6171 27.9338 20.7707 28.0454 20.9439 28.0454H21.5997C21.9872 28.0454 22.1483 28.5412 21.8349 28.769L21.3043 29.1545C21.1641 29.2563 21.1055 29.4369 21.159 29.6017L21.3617 30.2254C21.4814 30.5939 21.0596 30.9004 20.7461 30.6726L20.2156 30.2871C20.0754 30.1853 19.8855 30.1853 19.7453 30.2871L19.2148 30.6726C18.9013 30.9004 18.4795 30.5939 18.5993 30.2254L18.8019 29.6017C18.8555 29.4369 18.7968 29.2563 18.6566 29.1545L18.126 28.769C17.8126 28.5412 17.9737 28.0454 18.3612 28.0454H19.017C19.1902 28.0454 19.3438 27.9338 19.3974 27.769L19.6 27.1453Z" fill="#FB80FF"/>
<path d="M32.5871 26.1463C32.7068 25.7778 33.2282 25.7778 33.3479 26.1463L33.5506 26.77C33.6041 26.9348 33.7577 27.0464 33.931 27.0464H34.5868C34.9743 27.0464 35.1354 27.5422 34.8219 27.77L34.2914 28.1555C34.1512 28.2573 34.0925 28.4379 34.1461 28.6027L34.3487 29.2264C34.4685 29.5949 34.0467 29.9013 33.7332 29.6736L33.2026 29.2881C33.0624 29.1863 32.8726 29.1863 32.7324 29.2881L32.2018 29.6736C31.8884 29.9013 31.4666 29.5949 31.5863 29.2264L31.789 28.6027C31.8425 28.4379 31.7838 28.2573 31.6437 28.1555L31.1131 27.77C30.7996 27.5422 30.9607 27.0464 31.3482 27.0464H32.004C32.1773 27.0464 32.3309 26.9348 32.3844 26.77L32.5871 26.1463Z" fill="#FB80FF"/>
<path d="M41.5783 31.1413C41.698 30.7728 42.2194 30.7728 42.3391 31.1413L42.5418 31.765C42.5953 31.9298 42.7489 32.0414 42.9222 32.0414H43.578C43.9655 32.0414 44.1266 32.5373 43.8131 32.765L43.2826 33.1505C43.1424 33.2524 43.0837 33.4329 43.1373 33.5977L43.3399 34.2214C43.4597 34.5899 43.0379 34.8964 42.7244 34.6686L42.1938 34.2832C42.0536 34.1813 41.8638 34.1813 41.7236 34.2832L41.1931 34.6686C40.8796 34.8964 40.4578 34.5899 40.5775 34.2214L40.7802 33.5977C40.8337 33.4329 40.7751 33.2524 40.6349 33.1505L40.1043 32.765C39.7908 32.5373 39.9519 32.0414 40.3394 32.0414H40.9952C41.1685 32.0414 41.3221 31.9298 41.3756 31.765L41.5783 31.1413Z" fill="#FB80FF"/>
<path d="M40.5793 19.1531C40.699 18.7846 41.2204 18.7846 41.3401 19.1531L41.5428 19.7768C41.5963 19.9416 41.7499 20.0532 41.9232 20.0532H42.579C42.9665 20.0532 43.1276 20.5491 42.8141 20.7768L42.2836 21.1623C42.1434 21.2641 42.0847 21.4447 42.1382 21.6095L42.3409 22.2332C42.4606 22.6017 42.0388 22.9082 41.7254 22.6804L41.1948 22.2949C41.0546 22.1931 40.8648 22.1931 40.7246 22.2949L40.194 22.6804C39.8805 22.9082 39.4588 22.6017 39.5785 22.2332L39.7812 21.6095C39.8347 21.4447 39.776 21.2641 39.6358 21.1623L39.1053 20.7768C38.7918 20.5491 38.9529 20.0532 39.3404 20.0532H39.9962C40.1695 20.0532 40.3231 19.9416 40.3766 19.7768L40.5793 19.1531Z" fill="#FB80FF"/>
<path d="M7.61175 30.1423C7.73149 29.7738 8.25285 29.7738 8.37259 30.1423L8.57525 30.766C8.62879 30.9308 8.78238 31.0424 8.95567 31.0424H9.61146C9.99895 31.0424 10.1601 31.5383 9.84658 31.766L9.31603 32.1515C9.17583 32.2533 9.11717 32.4339 9.17072 32.5987L9.37337 33.2224C9.49311 33.5909 9.07132 33.8974 8.75783 33.6696L8.22728 33.2841C8.08709 33.1823 7.89725 33.1823 7.75706 33.2841L7.22651 33.6696C6.91302 33.8974 6.49123 33.5909 6.61097 33.2224L6.81362 32.5987C6.86717 32.4339 6.80851 32.2533 6.66831 32.1515L6.13776 31.766C5.82428 31.5383 5.98539 31.0424 6.37288 31.0424H7.02867C7.20196 31.0424 7.35555 30.9308 7.4091 30.766L7.61175 30.1423Z" fill="#FB80FF"/>
<path d="M16.4834 31.469C16.4834 32.0205 16.0363 32.4676 15.4849 32.4676C14.9334 32.4676 14.4863 32.0205 14.4863 31.469C14.4863 30.9176 14.9334 30.4705 15.4849 30.4705C16.0363 30.4705 16.4834 30.9176 16.4834 31.469Z" fill="#4B1664" stroke="#4B1664"/>
<path d="M25.4743 39.4612C25.4743 40.0126 25.0273 40.4597 24.4758 40.4597C23.9244 40.4597 23.4773 40.0126 23.4773 39.4612C23.4773 38.9097 23.9244 38.4626 24.4758 38.4626C25.0273 38.4626 25.4743 38.9097 25.4743 39.4612Z" fill="#4B1664" stroke="#4B1664"/>
<circle cx="33.467" cy="37.4632" r="0.998528" fill="#4B1664" stroke="#4B1664"/>
<path d="M29.4704 29.471C29.4704 30.0225 29.0234 30.4695 28.4719 30.4695C27.9204 30.4695 27.4734 30.0225 27.4734 29.471C27.4734 28.9195 27.9204 28.4725 28.4719 28.4725C29.0234 28.4725 29.4704 28.9195 29.4704 29.471Z" fill="#4B1664" stroke="#4B1664"/>
<path d="M44.4558 26.474C44.4558 27.0255 44.0087 27.4725 43.4573 27.4725C42.9058 27.4725 42.4587 27.0255 42.4587 26.474C42.4587 25.9225 42.9058 25.4755 43.4573 25.4755C44.0087 25.4755 44.4558 25.9225 44.4558 26.474Z" fill="#4B1664" stroke="#4B1664"/>
<path d="M46.4538 15.4848C46.4538 16.0363 46.0068 16.4833 45.4553 16.4833C44.9038 16.4833 44.4568 16.0363 44.4568 15.4848C44.4568 14.9333 44.9038 14.4863 45.4553 14.4863C46.0068 14.4863 46.4538 14.9333 46.4538 15.4848Z" fill="#4B1664" stroke="#4B1664"/>
<path d="M37.4626 18.4818C37.4626 19.0333 37.0156 19.4803 36.4641 19.4803C35.9126 19.4803 35.4656 19.0333 35.4656 18.4818C35.4656 17.9303 35.9126 17.4833 36.4641 17.4833C37.0156 17.4833 37.4626 17.9303 37.4626 18.4818Z" fill="#4B1664" stroke="#4B1664"/>
<path d="M2.99706 29.9705L4.71365 28.9406C5.23321 28.6289 5.78004 28.365 6.34737 28.1522L9.49068 26.9735L12.0431 26.3354C13.0003 26.0961 13.9167 25.7165 14.7627 25.2089L15.9843 24.4759M32.4681 16.9833L32.9004 16.4429C33.9283 15.158 35.2515 14.1307 36.7857 13.5359C37.5748 13.2299 38.2652 12.9872 38.4622 12.9872C38.6598 12.9872 39.3544 12.7429 40.147 12.4354C41.6725 11.8436 42.975 10.7997 43.9568 9.49068V9.49068M1.99805 23.9764L3.5543 23.0427C4.17995 22.6673 4.84333 22.3564 5.54354 22.1513C6.80598 21.7816 8.10283 21.4789 8.49166 21.4789C9.05679 21.4789 12.8207 20.6464 14.9853 20.4799M27.473 13.9863C28.139 13.6533 29.0189 13.3263 29.471 12.9872C31.4691 11.4887 32.0525 10.7668 32.4681 10.4897C33.424 9.85245 34.6508 9.28294 35.8894 8.78119C37.2437 8.23254 38.4981 7.45669 39.5314 6.42344L40.4602 5.49461M2.99706 18.9813L4.11872 18.5327C5.031 18.1678 5.88531 17.6678 6.72868 17.1637C7.66825 16.602 8.73667 16.0479 8.99117 15.9843C10.9892 15.4848 12.4877 15.4848 12.9872 15.4848C13.4867 15.4848 15.9843 15.4848 16.9833 14.9853C17.9823 14.4858 18.3973 14.2572 19.4809 13.9863C21.4789 13.4867 21.9784 12.9872 22.4779 12.4877C22.9774 11.9882 25.1218 9.84389 25.475 9.49068C25.9745 8.99117 27.473 7.65915 28.472 6.99314L31.3216 5.09342C32.4084 4.36888 33.6266 3.86428 34.9074 3.60812L35.4651 3.49657M4.49559 12.9872L7.99215 11.4887C8.99117 11.1557 11.0891 10.4897 11.4887 10.4897C11.9882 10.4897 13.9863 9.99019 14.4858 9.99019C14.9853 9.99019 16.4838 9.99019 17.9823 9.49068C19.9804 8.82467 20.4799 8.24191 21.4789 7.49264C22.2781 6.89323 22.9774 5.66111 23.4769 4.9951L25.9745 1.99805M8.49166 7.99215C9.49068 7.78402 10.9892 7.49264 11.9882 7.49264C12.9872 7.49264 13.9863 7.49264 15.4848 6.49363C16.2248 6.00025 16.5994 5.14139 17.0146 4.52623C17.2794 4.13402 17.6507 3.82815 17.9853 3.49356L18.4818 2.99706" stroke="#FB80FF" stroke-width="1.5" stroke-linecap="round"/>
</svg>
