<svg width="50" height="44" viewBox="0 0 50 44" fill="none" xmlns="http://www.w3.org/2000/svg">
<mask id="path-1-inside-1_18_180" fill="white">
<path fill-rule="evenodd" clip-rule="evenodd" d="M24.9755 44C38.769 44 49.9509 36.8071 49.9509 23C50.8695 5.5 38.769 0 24.9755 0C11.1819 0 0 9.19288 0 23C0 38 9.90975 43 24.9755 44ZM24.3955 26C27.9818 26 31.8881 25 31.3886 20.5C30.8891 16 27.9818 16 24.3955 16C20.8092 16 16.9029 18.4624 16.9029 21.5C16.9029 24.5376 20.8092 26 24.3955 26Z"/>
</mask>
<path fill-rule="evenodd" clip-rule="evenodd" d="M24.9755 44C38.769 44 49.9509 36.8071 49.9509 23C50.8695 5.5 38.769 0 24.9755 0C11.1819 0 0 9.19288 0 23C0 38 9.90975 43 24.9755 44ZM24.3955 26C27.9818 26 31.8881 25 31.3886 20.5C30.8891 16 27.9818 16 24.3955 16C20.8092 16 16.9029 18.4624 16.9029 21.5C16.9029 24.5376 20.8092 26 24.3955 26Z" fill="#FF90D3"/>
<path d="M49.9509 23L48.9523 22.9476L48.9509 22.9738V23H49.9509ZM24.9755 44L24.9092 44.9978L24.9423 45H24.9755V44ZM31.3886 20.5L30.3947 20.6103L30.3947 20.6103L31.3886 20.5ZM48.9509 23C48.9509 29.6017 46.2926 34.5583 42.0208 37.8891C37.7203 41.2423 31.7116 43 24.9755 43V45C32.0328 45 38.5118 43.1613 43.2506 39.4663C48.0182 35.7488 50.9509 30.2054 50.9509 23H48.9509ZM24.9755 1C31.7695 1 37.9857 2.35958 42.3708 5.73033C46.6959 9.05503 49.3978 14.46 48.9523 22.9476L50.9495 23.0524C51.4226 14.04 48.5335 7.94497 43.5897 4.14467C38.7057 0.390423 31.975 -1 24.9755 -1V1ZM1 23C1 9.85119 11.6218 1 24.9755 1V-1C10.742 -1 -1 8.53457 -1 23H1ZM25.0417 43.0022C17.5694 42.5062 11.5621 41.0237 7.43567 37.9482C3.37766 34.9238 1 30.2514 1 23H-1C-1 30.7486 1.57721 36.0762 6.2405 39.5518C10.8353 42.9763 17.3158 44.4938 24.9092 44.9978L25.0417 43.0022ZM30.3947 20.6103C30.5032 21.5872 30.3652 22.2972 30.1111 22.8218C29.858 23.3442 29.4547 23.755 28.9121 24.0786C27.7864 24.7499 26.1366 25 24.3955 25V27C26.2407 27 28.3372 26.7501 29.9365 25.7964C30.7562 25.3075 31.4601 24.6245 31.911 23.6938C32.3608 22.7653 32.5238 21.6628 32.3825 20.3897L30.3947 20.6103ZM24.3955 17C26.2629 17 27.6378 17.0192 28.6358 17.4729C29.0918 17.6801 29.4573 17.9775 29.7436 18.4316C30.0387 18.8999 30.281 19.5858 30.3947 20.6103L32.3825 20.3897C32.2465 19.1642 31.9381 18.1626 31.4355 17.3652C30.9241 16.5538 30.245 16.0074 29.4634 15.6521C27.9864 14.9808 26.1144 15 24.3955 15V17ZM17.9029 21.5C17.9029 20.4313 18.5995 19.323 19.877 18.4307C21.1392 17.549 22.8135 17 24.3955 17V15C22.3912 15 20.3192 15.6822 18.7317 16.7911C17.1594 17.8894 15.9029 19.5311 15.9029 21.5H17.9029ZM24.3955 25C22.7169 25 21.0132 24.6544 19.7678 24.003C18.5267 23.3538 17.9029 22.5064 17.9029 21.5H15.9029C15.9029 23.5311 17.2322 24.9338 18.8408 25.7752C20.4452 26.6144 22.4878 27 24.3955 27V25Z" fill="#EFBB52" mask="url(#path-1-inside-1_18_180)"/>
<path d="M29.0796 38.5103L25.9197 38.4876" stroke="#72D7FF" stroke-width="2" stroke-linecap="round"/>
<path d="M32 10L32.9993 12.9978" stroke="#72D7FF" stroke-width="2" stroke-linecap="round"/>
<path d="M12.9719 17.9912L12.0274 21.0067" stroke="#72D7FF" stroke-width="2" stroke-linecap="round"/>
<path d="M33 26L33.9993 28.9978" stroke="#72D7FF" stroke-width="2" stroke-linecap="round"/>
<path d="M19 9L21.8102 10.4451" stroke="#FFFED0" stroke-width="2" stroke-linecap="round"/>
<path d="M6.74854 14.1089L8.2508 16.889" stroke="#FFFED0" stroke-width="2" stroke-linecap="round"/>
<path d="M44.4805 19.2601L42.519 21.7376" stroke="#FFFED0" stroke-width="2" stroke-linecap="round"/>
<path d="M19.162 34.0645L17.8373 36.9334" stroke="#FFFED0" stroke-width="2" stroke-linecap="round"/>
<path d="M28.6697 4.9281L28.3294 8.06973" stroke="white" stroke-width="2" stroke-linecap="round"/>
<path d="M10.9316 28.6935L14.0676 28.3044" stroke="white" stroke-width="2" stroke-linecap="round"/>
<path d="M24 30L24.9993 32.9978" stroke="white" stroke-width="2" stroke-linecap="round"/>
<path d="M15.3894 9.92273L15.6098 13.075" stroke="white" stroke-width="2" stroke-linecap="round"/>
<path d="M37.4757 12.2565L35.5236 14.7414" stroke="white" stroke-width="2" stroke-linecap="round"/>
<path d="M31.2363 32.1012L29.7628 34.8966" stroke="white" stroke-width="2" stroke-linecap="round"/>
<path d="M36.0117 24.9675L38.9876 26.0303" stroke="white" stroke-width="2" stroke-linecap="round"/>
<path d="M7 23L9.97591 24.0628" stroke="#FE52BA" stroke-width="2" stroke-linecap="round"/>
<path d="M40.429 31.2621L38.5471 33.8006" stroke="#FE52BA" stroke-width="2" stroke-linecap="round"/>
<path d="M36.5602 17.7358L37.3217 20.8027" stroke="#FE52BA" stroke-width="2" stroke-linecap="round"/>
<path d="M25.0249 12.3446L27.7367 10.7223" stroke="#FE52BA" stroke-width="2" stroke-linecap="round"/>
<path d="M17.1692 30.6118L19.6979 28.7168" stroke="#FE52BA" stroke-width="2" stroke-linecap="round"/>
</svg>
