<svg width="50" height="44" viewBox="0 0 50 44" fill="none" xmlns="http://www.w3.org/2000/svg">
<mask id="path-1-inside-1_18_206" fill="white">
<path fill-rule="evenodd" clip-rule="evenodd" d="M24.9755 43.9568C38.769 43.9568 49.9509 36.771 49.9509 22.9774C50.8695 5.4946 38.769 0 24.9755 0C11.1819 0 0 9.18385 0 22.9774C0 37.9627 9.90975 42.9578 24.9755 43.9568ZM24.3955 25.9745C27.9818 25.9745 31.8881 24.9754 31.3886 20.4799C30.8891 15.9843 27.9818 15.9843 24.3955 15.9843C20.8092 15.9843 16.9029 18.4443 16.9029 21.4789C16.9029 24.5135 20.8092 25.9745 24.3955 25.9745Z"/>
</mask>
<path fill-rule="evenodd" clip-rule="evenodd" d="M24.9755 43.9568C38.769 43.9568 49.9509 36.771 49.9509 22.9774C50.8695 5.4946 38.769 0 24.9755 0C11.1819 0 0 9.18385 0 22.9774C0 37.9627 9.90975 42.9578 24.9755 43.9568ZM24.3955 25.9745C27.9818 25.9745 31.8881 24.9754 31.3886 20.4799C30.8891 15.9843 27.9818 15.9843 24.3955 15.9843C20.8092 15.9843 16.9029 18.4443 16.9029 21.4789C16.9029 24.5135 20.8092 25.9745 24.3955 25.9745Z" fill="#5BEE98"/>
<path d="M49.9509 22.9774L48.9523 22.9249L48.9509 22.9512V22.9774H49.9509ZM24.9755 43.9568L24.9093 44.9546L24.9423 44.9568H24.9755V43.9568ZM31.3886 20.4799L30.3947 20.5903L30.3947 20.5903L31.3886 20.4799ZM48.9509 22.9774C48.9509 29.5719 46.2929 34.5233 42.0212 37.8508C37.7207 41.2007 31.7119 42.9568 24.9755 42.9568V44.9568C32.0326 44.9568 38.5115 43.1199 43.2503 39.4286C48.0179 35.7148 50.9509 30.1765 50.9509 22.9774H48.9509ZM24.9755 1C31.7696 1 37.9861 2.35829 42.3712 5.72577C46.6962 9.04711 49.3977 14.4464 48.9523 22.9249L50.9495 23.0299C51.4226 14.0256 48.5333 7.93619 43.5893 4.13953C38.7054 0.38901 31.9748 -1 24.9755 -1V1ZM1 22.9774C1 9.84302 11.6209 1 24.9755 1V-1C10.7429 -1 -1 8.52468 -1 22.9774H1ZM25.0416 42.959C17.5693 42.4635 11.5618 40.9823 7.4353 37.9098C3.37739 34.8885 1 30.221 1 22.9774H-1C-1 30.7191 1.57749 36.0418 6.24088 39.514C10.8357 42.9352 17.3159 44.4511 24.9093 44.9546L25.0416 42.959ZM30.3947 20.5903C30.5031 21.5659 30.3653 22.2748 30.1112 22.7986C29.8583 23.3203 29.4552 23.7306 28.9124 24.0539C27.7867 24.7246 26.1367 24.9745 24.3955 24.9745V26.9745C26.2406 26.9745 28.3369 26.7248 29.9361 25.7721C30.7558 25.2837 31.4598 24.6014 31.9108 23.6713C32.3608 22.7434 32.5239 21.6416 32.3825 20.3694L30.3947 20.5903ZM24.3955 16.9843C26.2628 16.9843 27.638 17.0035 28.6362 17.4568C29.0923 17.6639 29.4577 17.9609 29.7438 18.4144C30.0388 18.882 30.281 19.5669 30.3947 20.5903L32.3825 20.3694C32.2465 19.145 31.938 18.1441 31.4353 17.3473C30.9237 16.5364 30.2445 15.9905 29.4631 15.6357C27.9862 14.9651 26.1145 14.9843 24.3955 14.9843V16.9843ZM17.9029 21.4789C17.9029 20.4122 18.599 19.3052 19.8766 18.4137C21.1388 17.5328 22.8133 16.9843 24.3955 16.9843V14.9843C22.3914 14.9843 20.3196 15.6657 18.732 16.7735C17.1599 17.8707 15.9029 19.511 15.9029 21.4789H17.9029ZM24.3955 24.9745C22.7168 24.9745 21.0129 24.6292 19.7675 23.9783C18.526 23.3296 17.9029 22.4833 17.9029 21.4789H15.9029C15.9029 23.509 17.2329 24.9105 18.8412 25.7509C20.4454 26.5892 22.4879 26.9745 24.3955 26.9745V24.9745Z" fill="#EFBB52" mask="url(#path-1-inside-1_18_206)"/>
<path d="M8.49167 8.99118L13.9863 6.99315L20.4799 4.99511L25.2494 4.20019C26.0644 4.06436 26.8892 3.99609 27.7154 3.99609H30.7043C31.5328 3.99609 32.347 4.21231 33.0663 4.62337L34.3337 5.34757C35.0333 5.74739 35.4651 6.49146 35.4651 7.29731V7.29731C35.4651 8.29993 34.8005 9.18108 33.8364 9.45652L32.5161 9.83375C32.1529 9.93754 31.7764 9.98367 31.3997 10.013C30.0763 10.1162 28.6566 10.5527 26.474 10.9892C25.7813 11.1278 20.9794 12.4877 20.4799 12.4877C19.9804 12.4877 16.9833 13.4868 15.4848 13.9863C13.9863 14.4858 11.9882 14.9853 9.9902 15.9843C9.16373 16.3975 7.79679 17.6931 6.68861 18.516C6.24276 18.8471 5.79515 19.1803 5.40246 19.573L4.89741 20.0781C4.6323 20.3432 4.4238 20.6594 4.28456 21.0075L4.09871 21.4721C3.74346 22.3602 4.02836 23.3763 4.7936 23.9502V23.9502C5.24245 24.2868 5.80665 24.4314 6.36208 24.352L8.14492 24.0973C8.70665 24.0171 9.25536 23.8632 9.77691 23.6397L12.4877 22.4779L15.4848 21.4789M31.9686 16.9833L34.2133 16.1416C35.3764 15.7054 36.5891 15.4154 37.8237 15.2782L40.4602 14.9853H43.2861C43.7303 14.9853 44.1716 15.0569 44.5931 15.1974L45.2988 15.4326C46.317 15.772 47.0642 16.6465 47.2407 17.7052V17.7052C47.376 18.5173 47.1726 19.3654 46.5568 19.912C45.8572 20.5329 44.943 21.1502 43.9568 21.4789C42.5352 21.9528 40.4602 22.4779 38.9617 22.4779C37.7629 22.4779 34.7991 22.4779 33.4671 22.4779M18.4818 26.474C16.9833 26.807 14.9853 27.473 13.9863 27.9725C13.7732 28.079 12.8675 28.5911 11.8885 29.0931C10.6683 29.7188 9.52861 30.5245 8.65075 31.5779L7.99643 32.3631C7.66486 32.761 7.42741 33.2286 7.30179 33.731V33.731C7.10262 34.5277 7.18363 35.3957 7.7843 35.9557C7.99736 36.1543 8.23839 36.3375 8.49167 36.4642C9.49069 36.9637 11.4887 36.2977 12.4877 35.9647C13.8198 35.4651 16.5837 34.4661 16.9833 34.4661C17.4828 34.4661 21.0321 33.191 21.4789 32.9676C22.4779 32.4681 25.475 30.4701 26.474 29.9706C26.9676 29.7237 29.1616 29.1826 31.1301 28.652C32.6868 28.2324 34.289 27.9725 35.9012 27.9725C37.0776 27.9725 38.2937 27.9725 38.9617 27.9725C39.6367 27.9725 40.7656 27.867 41.8313 27.745C43.2435 27.5834 44.7547 27.4147 45.985 28.1264C46.1807 28.2396 46.3395 28.3572 46.4543 28.472C46.9538 28.9715 46.4543 30.9696 45.9548 31.4691C45.5552 31.8687 42.1253 32.6346 40.4602 32.9676C39.1282 33.1341 36.5248 34.1129 35.4651 34.4661C33.9666 34.9656 29.8651 35.5179 28.9715 35.9647C27.9725 36.4642 24.87 37.5159 23.9764 37.9627C23.6259 38.138 23.1114 38.4362 22.5407 38.7712C21.4045 39.4381 21.4837 41.3186 22.6947 41.8376V41.8376C22.8812 41.9175 23.0814 41.9588 23.2843 41.9588C24.6933 41.9588 27.102 41.9588 27.473 41.9588C27.8726 41.9588 32.3016 40.9597 34.4661 40.4602L38.4622 38.9617" stroke="white" stroke-width="2" stroke-linecap="round"/>
<path d="M37.8626 13.4867C37.8626 14.2591 37.2365 14.8853 36.4641 14.8853C35.6917 14.8853 35.0656 14.2591 35.0656 13.4867C35.0656 12.7144 35.6917 12.0882 36.4641 12.0882C37.2365 12.0882 37.8626 12.7144 37.8626 13.4867Z" fill="#288B51" stroke="#23814A" stroke-width="0.2"/>
<circle cx="24.4758" cy="10.4897" r="1.39853" fill="#288B51" stroke="#23814A" stroke-width="0.2"/>
<path d="M7.89217 26.474C7.89217 27.2464 7.26603 27.8725 6.49364 27.8725C5.72126 27.8725 5.09512 27.2464 5.09512 26.474C5.09512 25.7016 5.72126 25.0755 6.49364 25.0755C7.26603 25.0755 7.89217 25.7016 7.89217 26.474Z" fill="#288B51" stroke="#23814A" stroke-width="0.2"/>
<circle cx="16.4839" cy="31.469" r="1.39853" fill="#288B51" stroke="#23814A" stroke-width="0.2"/>
<circle cx="34.4661" cy="36.4642" r="1.39853" fill="#288B51" stroke="#23814A" stroke-width="0.2"/>
<path d="M34.8656 25.475C34.8656 26.2474 34.2394 26.8735 33.467 26.8735C32.6946 26.8735 32.0685 26.2474 32.0685 25.475C32.0685 24.7026 32.6946 24.0764 33.467 24.0764C34.2394 24.0764 34.8656 24.7026 34.8656 25.475Z" fill="#288B51" stroke="#23814A" stroke-width="0.2"/>
<circle cx="14.4857" cy="15.4848" r="1.39853" fill="#288B51" stroke="#23814A" stroke-width="0.2"/>
<path d="M42.8577 25.475C42.8577 26.2474 42.2316 26.8735 41.4592 26.8735C40.6868 26.8735 40.0607 26.2474 40.0607 25.475C40.0607 24.7026 40.6868 24.0764 41.4592 24.0764C42.2316 24.0764 42.8577 24.7026 42.8577 25.475Z" fill="#D6AE5F" stroke="#BF984B" stroke-width="0.2"/>
<path d="M28.8714 31.469C28.8714 32.2414 28.2453 32.8676 27.4729 32.8676C26.7005 32.8676 26.0744 32.2414 26.0744 31.469C26.0744 30.6967 26.7005 30.0705 27.4729 30.0705C28.2453 30.0705 28.8714 30.6967 28.8714 31.469Z" fill="#D6AE5F" stroke="#BF984B" stroke-width="0.2"/>
<path d="M12.8873 34.4661C12.8873 35.2385 12.2611 35.8646 11.4888 35.8646C10.7164 35.8646 10.0902 35.2385 10.0902 34.4661C10.0902 33.6937 10.7164 33.0676 11.4888 33.0676C12.2611 33.0676 12.8873 33.6937 12.8873 34.4661Z" fill="#D6AE5F" stroke="#BF984B" stroke-width="0.2"/>
<path d="M9.89022 15.4848C9.89022 16.2572 9.26408 16.8833 8.49169 16.8833C7.71931 16.8833 7.09316 16.2572 7.09316 15.4848C7.09316 14.7124 7.71931 14.0863 8.49169 14.0863C9.26408 14.0863 9.89022 14.7124 9.89022 15.4848Z" fill="#D6AE5F" stroke="#BF984B" stroke-width="0.2"/>
<path d="M20.8795 7.49261C20.8795 8.26499 20.2533 8.89113 19.4809 8.89113C18.7086 8.89113 18.0824 8.26499 18.0824 7.49261C18.0824 6.72022 18.7086 6.09408 19.4809 6.09408C20.2533 6.09408 20.8795 6.72022 20.8795 7.49261Z" fill="#D6AE5F" stroke="#BF984B" stroke-width="0.2"/>
<path d="M32.8675 14.4858C32.8675 15.2582 32.2414 15.8843 31.469 15.8843C30.6966 15.8843 30.0705 15.2582 30.0705 14.4858C30.0705 13.7134 30.6966 13.0872 31.469 13.0872C32.2414 13.0872 32.8675 13.7134 32.8675 14.4858Z" fill="#D6AE5F" stroke="#BF984B" stroke-width="0.2"/>
<path d="M44.8558 18.4818C44.8558 19.2542 44.2297 19.8803 43.4573 19.8803C42.6849 19.8803 42.0587 19.2542 42.0587 18.4818C42.0587 17.7094 42.6849 17.0833 43.4573 17.0833C44.2297 17.0833 44.8558 17.7094 44.8558 18.4818Z" fill="#D6AE5F" stroke="#BF984B" stroke-width="0.2"/>
</svg>
